<?xml version="1.0" encoding="utf-8"?>
<!-- Generator: Adobe Illustrator 22.0.1, SVG Export Plug-In . SVG Version: 6.00 Build 0)  -->
<svg version="1.1" id="Layer_1" xmlns="http://www.w3.org/2000/svg" xmlns:xlink="http://www.w3.org/1999/xlink" x="0px" y="0px"
	 viewBox="0 0 250 250" style="enable-background:new 0 0 250 250;" xml:space="preserve">
<style type="text/css">
	.st0{fill:#231F20;stroke:#FFFFFF;stroke-width:1.3335;stroke-miterlimit:10;}
	.st1{fill:none;stroke:#64C7C7;stroke-width:8;stroke-miterlimit:10;}
</style>
<title>Artboard 3</title>
<path class="st0" d="M47.8,384.3c0,0-74.9-38.8-28.4-131.3s46.9-100.2,46.9-100.2l-6.8-46.9l44.2,17.2h53.7l34.3-26.6v52.4
	L249.6,304c8,20.9,6,44.4-5.4,63.6c-5.9,9-13.1,16.2-22.1,16.7C196.3,384.8,47.8,384.3,47.8,384.3z"/>
<polyline class="st1" points="162.4,95.5 201.6,80.6 238.2,112.2 "/>
<polyline class="st1" points="26.7,118 51.6,74.7 80.8,96.4 117.4,86.4 "/>
<polyline class="st1" points="112.1,64.7 137.9,43.9 149.7,64.7 192.9,43.9 "/>
</svg>
