<svg xmlns="http://www.w3.org/2000/svg" id="Layer_1" viewBox="0 0 250 250" width="250" height="250"><style>.st0,.st1{fill:#231f20;stroke:#fff;stroke-width:1.3335;stroke-miterlimit:10}.st1{fill:none;stroke:#64c7c7;stroke-width:8}</style><path d="M47.8 384.3S-27.1 345.5 19.4 253s46.9-100.2 46.9-100.2l-6.8-46.9 44.2 17.2h53.7l34.3-26.6v52.4L249.6 304c8 20.9 6 44.4-5.4 63.6-5.9 9-13.1 16.2-22.1 16.7-25.8.5-174.3 0-174.3 0z" class="st0"/><path d="M162.4 95.5l39.2-14.9 36.6 31.6M26.7 118l24.9-43.3 29.2 21.7 36.6-10m-5.3-21.7l25.8-20.8 11.8 20.8 43.2-20.8" class="st1"/></svg>