<svg xmlns="http://www.w3.org/2000/svg"><symbol id="facebook" viewBox="0 0 67.44 71.04"><defs><style>.cls-1{fill:#f6f6f7}.cls-2{fill:#64c7c7}</style></defs><path d="M2.06 63.32V6.61c0-.12.07-.25.09-.37A3.38 3.38 0 0 1 5 3.38c.14 0 .25-.08.37-.1h56.71a2.24 2.24 0 0 0 .37.1 3.35 3.35 0 0 1 2.84 2.84c0 .14.08.25.1.37v56.77a1.6 1.6 0 0 0-.1.31 3.35 3.35 0 0 1-2.84 2.84 1.25 1.25 0 0 0-.31.1H45.81V42.07h7.75c.5 0 .5 0 .56-.5.15-1.32.33-2.65.5-4 .21-1.59.41-3.18.62-4.75 0-.36 0-.36-.35-.36h-9.06v-6.22a8.48 8.48 0 0 1 .17-1.66 3 3 0 0 1 2.42-2.51 11.17 11.17 0 0 1 2.13-.26h4.73c.25 0 .33-.07.33-.33v-8.05c0-.22-.08-.29-.29-.31-.39 0-.78-.08-1.16-.1-2.08-.08-4.15-.17-6.22-.19a13.31 13.31 0 0 0-5.25 1 10.35 10.35 0 0 0-5.54 5.25 13.34 13.34 0 0 0-1.28 5.72v7.71h-8c-.27 0-.35 0-.35.32v8.93c0 .33 0 .35.35.35h8v24.13a2.42 2.42 0 0 1 0 .39H5.29a1.86 1.86 0 0 0-.31-.1 3.37 3.37 0 0 1-2.85-2.84 1.61 1.61 0 0 0-.07-.37z" class="cls-1"/><path d="M35.72 66.81V42.27h-8c-.35 0-.35 0-.35-.35V33c0-.27.08-.35.35-.33h8v-7.71A13.26 13.26 0 0 1 37 19.24 10.38 10.38 0 0 1 42.57 14a12.87 12.87 0 0 1 5.25-1c2.07 0 4.15.12 6.22.19.39 0 .77.08 1.16.1.21 0 .29.1.29.31v8.06c0 .25-.08.33-.33.33h-4.72a10.78 10.78 0 0 0-2.13.25 3 3 0 0 0-2.42 2.52 7.63 7.63 0 0 0-.18 1.64v6.05a1 1 0 0 0 0 .21h9.06c.39 0 .39 0 .35.37-.21 1.59-.42 3.17-.62 4.74-.17 1.32-.33 2.66-.5 4-.06.51 0 .51-.56.51h-7.73v24.51c-3.33.02-6.66.02-9.99.02z" class="cls-2"/></symbol><symbol id="cancel" viewBox="0 0 67.44 71.04"><defs><style>.cls-1{fill:none;stroke:#231f20;stroke-miterlimit:10;stroke-width:6.45px}</style></defs><path d="M18.36 16.61l35.9 37.05m-35.14.7L53.51 15.9" class="cls-1"/></symbol><symbol id="cart" viewBox="0 0 67.44 71.04"><defs><style>.cls-1{fill:#231f20;stroke:#fff;stroke-width:1.33px}.cls-1,.cls-2,.cls-3,.cls-6,.cls-7{stroke-miterlimit:10}.cls-2,.cls-3{fill:none;stroke:#64c7c7}.cls-2{stroke-width:3.08px}.cls-3{stroke-width:3.86px}.cls-4{fill:#fff}.cls-5{fill:#64c7c7}.cls-6,.cls-7{fill:#f8f8f8;stroke:#f8f8f8;stroke-linecap:round}.cls-6{stroke-width:4.44px}.cls-7{stroke-width:3.86px}</style></defs><g id="Layer_2-2"><path d="M28.13 48.25s-12.2-6.32-4.63-21.39 7.65-16.31 7.65-16.31L30 2.9l7.21 2.8H46l5.59-4.34v8.53L61 35.16a12 12 0 0 1-.88 10.37c-1 1.47-2.13 2.64-3.6 2.72-4.21.07-28.39 0-28.39 0z" class="cls-1"/><path d="M60.39 42.88c-.58-2.28-.58-4.48-2.13-6-5.51-5.22-11-9.55-14.69-16-1.84-2.72.88-5.81 3.38-7.06A60.79 60.79 0 0 1 58 17" class="cls-2"/><path d="M42.24 25.39c-5.73 4.41-11.9 8.45-16.16 14.55-1.55 1.84-.67 4.63-.22 6.84" class="cls-3"/><path d="M61.13 40.68a8.16 8.16 0 0 1-.74 2.13.74.74 0 0 0 .21 1 .82.82 0 0 0 1.11-.3 13.53 13.53 0 0 0 1-2.86c.08-.37-.37-.74-.81-.74s-.7.4-.77.77z" class="cls-4"/><path d="M59.59 43.84a.59.59 0 0 0 .75-.35.6.6 0 0 0-.35-.76.55.55 0 0 0-.4 0 .59.59 0 0 0-.41 1.11.58.58 0 0 0 .41 0z" class="cls-5"/><path d="M60.25 43.25a2 2 0 0 0 .07-.59c0-.73-1.1-.73-1.18 0v.22c0 .37.08.66.45.74s.66-.08.66-.37z" class="cls-5"/><path d="M59.22 43.62l.22.8c0 .08.07.08.15.08a.37.37 0 0 0 .14-.3l.3-.51c0-.07-.08-.15-.08-.07s-.36.36-.44.58h.15v-.58c0-.08-.15-.15-.15 0a.75.75 0 0 1-.07.36h.15c.07-.07.07-.14 0-.29s-.08-.07-.15 0-.08.07 0 .15a.07.07 0 0 0 .07.07c.08-.07 0-.15-.07-.15V44c0 .08.15.15.15 0a.57.57 0 0 0 .07-.36h-.15v.51c0 .07.08.15.15.07s.15-.51.29-.51v-.15c-.07.15-.22.66-.36.74h.07l-.22-.81c-.08-.15-.22-.07-.15 0zm.95-.89a.29.29 0 0 1-.07.22c0 .15.15.22.15.15a.59.59 0 0 0 .07-.29c.07-.15-.07-.15-.15-.08z" class="cls-5"/><path d="M60.25 43.1c0 .15-.15.37-.15.52l.15-.37h-.08a.88.88 0 0 0 .3 1.1.81.81 0 0 0 1-.29 1.75 1.75 0 0 0 .14-.59v.37a.67.67 0 0 0 .15-.37.77.77 0 1 0-1.44-.47z" class="cls-4"/><path d="M60.76 44.64a.8.8 0 0 0 .53-1 .82.82 0 0 0-.53-.53.81.81 0 0 0-.53 1 .78.78 0 0 0 .53.53z" class="cls-4"/><path d="M60.76 44.64a.8.8 0 0 0 .53-1 .82.82 0 0 0-.53-.53.81.81 0 0 0-.53 1 .78.78 0 0 0 .53.53z" class="cls-4"/><path d="M60.76 44.64a.73.73 0 0 0 .74-.73.74.74 0 1 0-1.47 0 .73.73 0 0 0 .73.73zm.15-6.64a12.38 12.38 0 0 1 .29 2.35.81.81 0 0 0 1.55.48 1 1 0 0 0 0-.48 19.12 19.12 0 0 0-.37-2.72c-.22-1.07-1.69-.63-1.47.37z" class="cls-4"/><path d="M61.57 38a.78.78 0 1 0-.77-.77.77.77 0 0 0 .77.77z" class="cls-4"/><path d="M61.57 38.1a.8.8 0 0 0 .53-1 .82.82 0 0 0-.53-.53.81.81 0 0 0-1 .53.81.81 0 0 0 1 1zm-38.65 6.03A21.22 21.22 0 0 0 26.37 48c.73.59 1.84-.44 1.1-1.1a18.67 18.67 0 0 1-3.23-3.53c-.52-.86-1.84-.05-1.32.76z" class="cls-4"/><path d="M23.94 46.11a5.31 5.31 0 0 0 1.11 1.11.73.73 0 0 0 1-.26.82.82 0 0 0-.22-1A4.94 4.94 0 0 1 25 45a.75.75 0 0 0-1.09 1z" class="cls-4"/><path d="M58.63 43.4c.22.29.22.8.37 1.17s.88.07.66-.44a7.32 7.32 0 0 0-.37-1.13c-.22-.41-.88 0-.66.4z" class="cls-5"/><path d="M59.66 44.42l-.22.37a.8.8 0 0 0 .57 1 .81.81 0 0 0 .75-.18l.22-.44c.44-.89-.88-1.63-1.32-.75z" class="cls-4"/><path d="M59 44.64a.29.29 0 0 0 .07.22c0 .15.22.15.29 0s.08-.07.15-.14a.23.23 0 0 0-.23-.21.35.35 0 0 0-.14.06.26.26 0 0 0-.07.15h.37a.28.28 0 0 1-.08-.15.21.21 0 0 0-.12-.28.21.21 0 0 0-.29.13.2.2 0 0 0 .05.22z" class="cls-5"/><path d="M27 46.26c-.22 0-.29-.15-.51-.22l-.49-.37c-.81-.51-1.61.81-.73 1.33a4.8 4.8 0 0 0 1.32.8.81.81 0 0 0 1-.58.9.9 0 0 0-.59-.96zm-4.38-2.64a1.5 1.5 0 0 1 .15.51.8.8 0 0 0 .95.51.66.66 0 0 0 .59-.73.81.81 0 0 0-.07-.22 4 4 0 0 0-.3-.81.73.73 0 0 0-1-.31.81.81 0 0 0-.32 1.05z" class="cls-4"/></g><path d="M16.11 36.78l46 .42c2.27 0 3.78 2 2.86 3.76l-7.66 14.73a3.22 3.22 0 0 1-2.9 1.61H25.72a3.14 3.14 0 0 1-3-1.92l-6.51-18.33a2.45 2.45 0 0 0-.26-.51l-.58-.91c-.56-.86-4.79-5.11-4.79-5.11H2.22" class="cls-6"/><circle cx="52.68" cy="64.49" r="4.62" class="cls-7"/><circle cx="29.51" cy="64.49" r="4.62" class="cls-7"/></symbol><symbol id="instagram" viewBox="0 0 67.44 71.04"><defs><style>.cls-1{fill:#f6f6f7;stroke:#f6f6f7;stroke-linecap:round;stroke-miterlimit:10;stroke-width:.75px}.cls-2{fill:#64c7c7}</style></defs><path d="M61 67.29H6.23A4.27 4.27 0 0 1 2 63V8a4.27 4.27 0 0 1 4.23-4.25H61A4.27 4.27 0 0 1 65.22 8v55A4.26 4.26 0 0 1 61 67.29z" class="cls-1"/><path d="M40.42 62.18H26.76A19.27 19.27 0 0 1 7.54 43V27.72A19.26 19.26 0 0 1 26.76 8.51h13.66a19.27 19.27 0 0 1 19.21 19.21V43a19.28 19.28 0 0 1-19.21 19.18zm4.06-4A11.22 11.22 0 0 0 55.62 47V23.7a11.22 11.22 0 0 0-11.14-11.19H22.71a11 11 0 0 0-7.85 3.29 11.16 11.16 0 0 0-3.29 7.9V47a11.23 11.23 0 0 0 11.14 11.14z" class="cls-2"/><path d="M48 35.13a14.34 14.34 0 1 1-14.34-14.37A14.34 14.34 0 0 1 48 35.13zm-14.39-9.4a9.41 9.41 0 1 0 9.39 9.4 9.4 9.4 0 0 0-9.39-9.4z" class="cls-2"/></symbol><symbol id="twitter" viewBox="0 0 67.44 71.04"><defs><style>.cls-1{fill:#f6f6f7;stroke:#f6f6f7;stroke-linecap:round;stroke-miterlimit:10;stroke-width:.75px}.cls-2{fill:#64c7c7}</style></defs><path d="M61.2 67.43h-55A4.29 4.29 0 0 1 2 63.14V7.91a4.3 4.3 0 0 1 4.29-4.3h55a4.31 4.31 0 0 1 4.3 4.3v55.25a4.29 4.29 0 0 1-4.39 4.27z" class="cls-1"/><g id="twitter"><g id="layer1"><path id="path3611" d="M23 59.06c21.86 0 33.81-18.11 33.81-33.81v-1.54a24.09 24.09 0 0 0 5.92-6.16 23.36 23.36 0 0 1-6.82 1.87 12 12 0 0 0 5.23-6.57 23.73 23.73 0 0 1-7.54 2.88A11.88 11.88 0 0 0 33 23.85a11.34 11.34 0 0 0 .31 2.7 33.74 33.74 0 0 1-24.5-12.42 11.72 11.72 0 0 0-1.61 6A11.89 11.89 0 0 0 12.49 30a12 12 0 0 1-5.39-1.49v.16a11.89 11.89 0 0 0 9.54 11.64 11.53 11.53 0 0 1-5.36.21 11.9 11.9 0 0 0 11.1 8.26 23.81 23.81 0 0 1-14.75 5.1 26.73 26.73 0 0 1-2.84-.16A33.36 33.36 0 0 0 23 59.06" class="cls-2"/></g></g></symbol><symbol id="next" viewBox="0 0 67.44 71.04"><defs><style>.cls-1,.cls-2{fill:none;stroke:#231f20;stroke-miterlimit:10}.cls-1{stroke-width:5.14px}.cls-2{stroke-width:5.56px}</style></defs><path d="M5.7 34.33h37.98" class="cls-1"/><path d="M43.68 22.15L57.53 36 43.68 47.94" class="cls-2"/></symbol><symbol id="cancel" viewBox="0 0 67.44 71.04"><defs><style>.cls-1{fill:none;stroke:#231f20;stroke-miterlimit:10;stroke-width:6.45px}</style></defs><path d="M18.36 16.61l35.9 37.05m-35.14.7L53.51 15.9" class="cls-1"/></symbol><symbol id="cart" viewBox="0 0 67.44 71.04"><defs><style>.cls-1{fill:#231f20;stroke:#fff;stroke-width:1.33px}.cls-1,.cls-2,.cls-3,.cls-6,.cls-7{stroke-miterlimit:10}.cls-2,.cls-3{fill:none;stroke:#64c7c7}.cls-2{stroke-width:3.08px}.cls-3{stroke-width:3.86px}.cls-4{fill:#fff}.cls-5{fill:#64c7c7}.cls-6,.cls-7{fill:#f8f8f8;stroke:#f8f8f8;stroke-linecap:round}.cls-6{stroke-width:4.44px}.cls-7{stroke-width:3.86px}</style></defs><g id="Layer_2-2"><path d="M28.13 48.25s-12.2-6.32-4.63-21.39 7.65-16.31 7.65-16.31L30 2.9l7.21 2.8H46l5.59-4.34v8.53L61 35.16a12 12 0 0 1-.88 10.37c-1 1.47-2.13 2.64-3.6 2.72-4.21.07-28.39 0-28.39 0z" class="cls-1"/><path d="M60.39 42.88c-.58-2.28-.58-4.48-2.13-6-5.51-5.22-11-9.55-14.69-16-1.84-2.72.88-5.81 3.38-7.06A60.79 60.79 0 0 1 58 17" class="cls-2"/><path d="M42.24 25.39c-5.73 4.41-11.9 8.45-16.16 14.55-1.55 1.84-.67 4.63-.22 6.84" class="cls-3"/><path d="M61.13 40.68a8.16 8.16 0 0 1-.74 2.13.74.74 0 0 0 .21 1 .82.82 0 0 0 1.11-.3 13.53 13.53 0 0 0 1-2.86c.08-.37-.37-.74-.81-.74s-.7.4-.77.77z" class="cls-4"/><path d="M59.59 43.84a.59.59 0 0 0 .75-.35.6.6 0 0 0-.35-.76.55.55 0 0 0-.4 0 .59.59 0 0 0-.41 1.11.58.58 0 0 0 .41 0z" class="cls-5"/><path d="M60.25 43.25a2 2 0 0 0 .07-.59c0-.73-1.1-.73-1.18 0v.22c0 .37.08.66.45.74s.66-.08.66-.37z" class="cls-5"/><path d="M59.22 43.62l.22.8c0 .08.07.08.15.08a.37.37 0 0 0 .14-.3l.3-.51c0-.07-.08-.15-.08-.07s-.36.36-.44.58h.15v-.58c0-.08-.15-.15-.15 0a.75.75 0 0 1-.07.36h.15c.07-.07.07-.14 0-.29s-.08-.07-.15 0-.08.07 0 .15a.07.07 0 0 0 .07.07c.08-.07 0-.15-.07-.15V44c0 .08.15.15.15 0a.57.57 0 0 0 .07-.36h-.15v.51c0 .07.08.15.15.07s.15-.51.29-.51v-.15c-.07.15-.22.66-.36.74h.07l-.22-.81c-.08-.15-.22-.07-.15 0zm.95-.89a.29.29 0 0 1-.07.22c0 .15.15.22.15.15a.59.59 0 0 0 .07-.29c.07-.15-.07-.15-.15-.08z" class="cls-5"/><path d="M60.25 43.1c0 .15-.15.37-.15.52l.15-.37h-.08a.88.88 0 0 0 .3 1.1.81.81 0 0 0 1-.29 1.75 1.75 0 0 0 .14-.59v.37a.67.67 0 0 0 .15-.37.77.77 0 1 0-1.44-.47z" class="cls-4"/><path d="M60.76 44.64a.8.8 0 0 0 .53-1 .82.82 0 0 0-.53-.53.81.81 0 0 0-.53 1 .78.78 0 0 0 .53.53z" class="cls-4"/><path d="M60.76 44.64a.8.8 0 0 0 .53-1 .82.82 0 0 0-.53-.53.81.81 0 0 0-.53 1 .78.78 0 0 0 .53.53z" class="cls-4"/><path d="M60.76 44.64a.73.73 0 0 0 .74-.73.74.74 0 1 0-1.47 0 .73.73 0 0 0 .73.73zm.15-6.64a12.38 12.38 0 0 1 .29 2.35.81.81 0 0 0 1.55.48 1 1 0 0 0 0-.48 19.12 19.12 0 0 0-.37-2.72c-.22-1.07-1.69-.63-1.47.37z" class="cls-4"/><path d="M61.57 38a.78.78 0 1 0-.77-.77.77.77 0 0 0 .77.77z" class="cls-4"/><path d="M61.57 38.1a.8.8 0 0 0 .53-1 .82.82 0 0 0-.53-.53.81.81 0 0 0-1 .53.81.81 0 0 0 1 1zm-38.65 6.03A21.22 21.22 0 0 0 26.37 48c.73.59 1.84-.44 1.1-1.1a18.67 18.67 0 0 1-3.23-3.53c-.52-.86-1.84-.05-1.32.76z" class="cls-4"/><path d="M23.94 46.11a5.31 5.31 0 0 0 1.11 1.11.73.73 0 0 0 1-.26.82.82 0 0 0-.22-1A4.94 4.94 0 0 1 25 45a.75.75 0 0 0-1.09 1z" class="cls-4"/><path d="M58.63 43.4c.22.29.22.8.37 1.17s.88.07.66-.44a7.32 7.32 0 0 0-.37-1.13c-.22-.41-.88 0-.66.4z" class="cls-5"/><path d="M59.66 44.42l-.22.37a.8.8 0 0 0 .57 1 .81.81 0 0 0 .75-.18l.22-.44c.44-.89-.88-1.63-1.32-.75z" class="cls-4"/><path d="M59 44.64a.29.29 0 0 0 .07.22c0 .15.22.15.29 0s.08-.07.15-.14a.23.23 0 0 0-.23-.21.35.35 0 0 0-.14.06.26.26 0 0 0-.07.15h.37a.28.28 0 0 1-.08-.15.21.21 0 0 0-.12-.28.21.21 0 0 0-.29.13.2.2 0 0 0 .05.22z" class="cls-5"/><path d="M27 46.26c-.22 0-.29-.15-.51-.22l-.49-.37c-.81-.51-1.61.81-.73 1.33a4.8 4.8 0 0 0 1.32.8.81.81 0 0 0 1-.58.9.9 0 0 0-.59-.96zm-4.38-2.64a1.5 1.5 0 0 1 .15.51.8.8 0 0 0 .95.51.66.66 0 0 0 .59-.73.81.81 0 0 0-.07-.22 4 4 0 0 0-.3-.81.73.73 0 0 0-1-.31.81.81 0 0 0-.32 1.05z" class="cls-4"/></g><path d="M16.11 36.78l46 .42c2.27 0 3.78 2 2.86 3.76l-7.66 14.73a3.22 3.22 0 0 1-2.9 1.61H25.72a3.14 3.14 0 0 1-3-1.92l-6.51-18.33a2.45 2.45 0 0 0-.26-.51l-.58-.91c-.56-.86-4.79-5.11-4.79-5.11H2.22" class="cls-6"/><circle cx="52.68" cy="64.49" r="4.62" class="cls-7"/><circle cx="29.51" cy="64.49" r="4.62" class="cls-7"/></symbol><symbol id="facebook" viewBox="0 0 67.44 71.04"><defs><style>.cls-1{fill:#f6f6f7}.cls-2{fill:#64c7c7}</style></defs><path d="M2.06 63.32V6.61c0-.12.07-.25.09-.37A3.38 3.38 0 0 1 5 3.38c.14 0 .25-.08.37-.1h56.71a2.24 2.24 0 0 0 .37.1 3.35 3.35 0 0 1 2.84 2.84c0 .14.08.25.1.37v56.77a1.6 1.6 0 0 0-.1.31 3.35 3.35 0 0 1-2.84 2.84 1.25 1.25 0 0 0-.31.1H45.81V42.07h7.75c.5 0 .5 0 .56-.5.15-1.32.33-2.65.5-4 .21-1.59.41-3.18.62-4.75 0-.36 0-.36-.35-.36h-9.06v-6.22a8.48 8.48 0 0 1 .17-1.66 3 3 0 0 1 2.42-2.51 11.17 11.17 0 0 1 2.13-.26h4.73c.25 0 .33-.07.33-.33v-8.05c0-.22-.08-.29-.29-.31-.39 0-.78-.08-1.16-.1-2.08-.08-4.15-.17-6.22-.19a13.31 13.31 0 0 0-5.25 1 10.35 10.35 0 0 0-5.54 5.25 13.34 13.34 0 0 0-1.28 5.72v7.71h-8c-.27 0-.35 0-.35.32v8.93c0 .33 0 .35.35.35h8v24.13a2.42 2.42 0 0 1 0 .39H5.29a1.86 1.86 0 0 0-.31-.1 3.37 3.37 0 0 1-2.85-2.84 1.61 1.61 0 0 0-.07-.37z" class="cls-1"/><path d="M35.72 66.81V42.27h-8c-.35 0-.35 0-.35-.35V33c0-.27.08-.35.35-.33h8v-7.71A13.26 13.26 0 0 1 37 19.24 10.38 10.38 0 0 1 42.57 14a12.87 12.87 0 0 1 5.25-1c2.07 0 4.15.12 6.22.19.39 0 .77.08 1.16.1.21 0 .29.1.29.31v8.06c0 .25-.08.33-.33.33h-4.72a10.78 10.78 0 0 0-2.13.25 3 3 0 0 0-2.42 2.52 7.63 7.63 0 0 0-.18 1.64v6.05a1 1 0 0 0 0 .21h9.06c.39 0 .39 0 .35.37-.21 1.59-.42 3.17-.62 4.74-.17 1.32-.33 2.66-.5 4-.06.51 0 .51-.56.51h-7.73v24.51c-3.33.02-6.66.02-9.99.02z" class="cls-2"/></symbol><symbol id="instagram" viewBox="0 0 67.44 71.04"><defs><style>.cls-1{fill:#f6f6f7;stroke:#f6f6f7;stroke-linecap:round;stroke-miterlimit:10;stroke-width:.75px}.cls-2{fill:#64c7c7}</style></defs><path d="M61 67.29H6.23A4.27 4.27 0 0 1 2 63V8a4.27 4.27 0 0 1 4.23-4.25H61A4.27 4.27 0 0 1 65.22 8v55A4.26 4.26 0 0 1 61 67.29z" class="cls-1"/><path d="M40.42 62.18H26.76A19.27 19.27 0 0 1 7.54 43V27.72A19.26 19.26 0 0 1 26.76 8.51h13.66a19.27 19.27 0 0 1 19.21 19.21V43a19.28 19.28 0 0 1-19.21 19.18zm4.06-4A11.22 11.22 0 0 0 55.62 47V23.7a11.22 11.22 0 0 0-11.14-11.19H22.71a11 11 0 0 0-7.85 3.29 11.16 11.16 0 0 0-3.29 7.9V47a11.23 11.23 0 0 0 11.14 11.14z" class="cls-2"/><path d="M48 35.13a14.34 14.34 0 1 1-14.34-14.37A14.34 14.34 0 0 1 48 35.13zm-14.39-9.4a9.41 9.41 0 1 0 9.39 9.4 9.4 9.4 0 0 0-9.39-9.4z" class="cls-2"/></symbol><symbol id="logo-32" viewBox="0 0 31.68 32"><defs><style>.cls-1{fill:#231f20;stroke:#fff;stroke-width:1.46px;stroke-miterlimit:10}.cls-2,.cls-3{stroke-miterlimit:10;fill:none;stroke:#62c7c7}.cls-2{stroke-width:2.51px}.cls-3{stroke-width:1.88px}.cls-4{fill:#fff}.cls-5{fill:#62c7c7}</style></defs><path d="M6.86 32s-8.32-4.3-3.12-14.57 5.2-11.18 5.2-11.18L8.19 1l4.9 2H19l3.8-3v5.8L29.24 23a8.17 8.17 0 0 1-.61 7.05A3.28 3.28 0 0 1 26.17 32H6.86z" class="cls-1"/><path d="M28.84 28.29c-.4-1.55-.4-3-1.44-4.06-3.76-3.56-7.52-6.49-10-10.88-1.26-1.89.62-4 2.3-4.82a41 41 0 0 1 7.57 2.15" class="cls-2"/><path d="M16.49 16.39c-3.93 3-8.11 5.75-11 9.93C4.41 27.58 5 29.46 5.3 31" class="cls-3"/><path d="M29.33 26.82a5.61 5.61 0 0 1-.51 1.42c-.27.61.63 1.14.9.53a6.89 6.89 0 0 0 .65-1.95c.09-.67-1-.66-1 0z" class="cls-4"/><path d="M28.3 29a.39.39 0 0 0 0-.78.39.39 0 0 0 0 .78z" class="cls-5"/><path d="M28.76 28.43a1.27 1.27 0 0 0 0-.28c0-.5-.76-.5-.78 0a2.46 2.46 0 0 1 0 .28c-.06.5.72.5.78 0z" class="cls-5"/><path d="M28 28.82a5.05 5.05 0 0 1 .18.55.06.06 0 0 0 .08 0 1.1 1.1 0 0 0 .3-.55.06.06 0 0 0-.08-.06.7.7 0 0 0-.27.43h.1a1 1 0 0 0 0-.38c0-.07-.1-.06-.1 0a1.24 1.24 0 0 0 0 .27h.1a.4.4 0 0 0 0-.19.06.06 0 0 0-.1 0 .17.17 0 0 0 0 .12h.07c.06 0 0-.12 0-.09v.15c0 .06.09.06.1 0v-.27h-.1a1 1 0 0 1 0 .38.06.06 0 0 0 .11 0c.25-.68.05-.11 0-.14a.11.11 0 0 1-.1 0c0-.12-.08-.24-.13-.36s-.12 0-.1 0zm.7-.6l-.05.16c0 .06.06.12.09.06a.66.66 0 0 0 .06-.2c0-.06-.09-.09-.1 0z" class="cls-5"/><path d="M28.74 28.46c0 .05-.22.49-.06.16-.29.61.61 1.14.9.53l.08-.24c-.07.21.07-.11.08-.17.2-.64-.81-.92-1-.28z" class="cls-4"/><path d="M29.1 29.5a.52.52 0 0 0 0-1 .52.52 0 0 0 0 1z" class="cls-4"/><path d="M29.09 29.51a.52.52 0 0 0 0-1 .52.52 0 0 0 0 1z" class="cls-4"/><path d="M29.07 29.53a.52.52 0 0 0 0-1 .52.52 0 0 0 0 1zm.11-4.53a9.58 9.58 0 0 1 .2 1.61c0 .67 1.08.67 1.05 0a11.91 11.91 0 0 0-.24-1.89c-.13-.66-1.14-.38-1 .28z" class="cls-4"/><path d="M29.64 25a.53.53 0 0 0 0-1.05.53.53 0 0 0 0 1.05z" class="cls-4"/><path d="M29.63 25.05a.53.53 0 0 0 0-1.05.53.53 0 0 0 0 1.05zM2.31 29.16a12.92 12.92 0 0 0 2.37 2.58c.51.45 1.25-.29.74-.74a11.83 11.83 0 0 1-2.21-2.37c-.36-.57-1.26 0-.9.53z" class="cls-4"/><path d="M3 30.5a5.1 5.1 0 0 0 .77.77c.55.39 1.07-.51.53-.91a3.91 3.91 0 0 1-.56-.59c-.44-.52-1.17.23-.74.73z" class="cls-4"/><path d="M27.64 28.64a6.91 6.91 0 0 1 .22.74c.12.31.63.18.5-.13a6.28 6.28 0 0 0-.27-.87c-.16-.3-.62 0-.45.26z" class="cls-5"/><path d="M28.34 29.34a2.75 2.75 0 0 1-.17.29.52.52 0 0 0 .9.53 2.75 2.75 0 0 0 .17-.29c.31-.6-.59-1.13-.9-.53z" class="cls-4"/><path d="M27.87 29.51v.14a.13.13 0 0 0 .24 0l.06-.11a.13.13 0 1 0-.22-.13l-.07.11h.24v-.14c-.06-.16-.31-.09-.25.07z" class="cls-5"/><path d="M5.11 30.63a2.84 2.84 0 0 1-.68-.42.53.53 0 0 0-.53.91 3.69 3.69 0 0 0 .93.52.52.52 0 0 0 .28-1zm-2.98-1.8a1.15 1.15 0 0 1 .1.33c.16.65 1.17.37 1-.28A2.86 2.86 0 0 0 3 28.3c-.29-.61-1.19-.08-.9.53z" class="cls-4"/></symbol><symbol id="logo-16" viewBox="0 0 16 16"><defs><style>.cls-1,.cls-2{fill:#231f20;stroke:#fff;stroke-width:1.02px;stroke-miterlimit:10}.cls-2{fill:none;stroke:#62c7c7;stroke-width:1.74px}</style></defs><path d="M-1.08 28.16s-5.78-3-2.17-10.12S.36 10.28.36 10.28l-.51-3.61L3.25 8h4.13L10 5.94v4l4.44 12a5.66 5.66 0 0 1-.42 4.9 2.29 2.29 0 0 1-1.71 1.31c-1.93.06-13.39.01-13.39.01z" class="cls-1"/><path d="M16 26c-.28-1.08-.28-2.09-1-2.82-2.61-2.47-5.22-4.51-7-7.56-.87-1.31.44-2.77 1.6-3.35a29.53 29.53 0 0 1 5.27 1.49" class="cls-2"/></symbol><symbol id="logo-64" viewBox="0 0 64 64"><defs><style>.cls-1{fill:#231f20;stroke:#fff;stroke-width:2.92px;stroke-miterlimit:10}.cls-2,.cls-3{stroke-miterlimit:10;fill:none;stroke:#62c7c7}.cls-2{stroke-width:5.01px}.cls-3{stroke-width:3.76px}.cls-4{fill:#fff}.cls-5{fill:#62c7c7}</style></defs><path d="M14.93 63.8s-16.37-8.44-6.14-28.61S19 13.26 19 13.26L17.56 3l9.64 3.8h11.7L46.39 1v11.4L59 46.26a16 16 0 0 1-1.2 13.86c-1.23 2-2.84 3.63-4.84 3.68-5.58.2-38.03 0-38.03 0z" class="cls-1"/><path d="M59 56.47c-.8-3.1-.8-6-2.88-8.11-7.52-7.1-15-13-20-21.72-2.51-3.76 1.25-7.94 4.59-9.61 3.76.42 11.63 2.89 15.14 4.28" class="cls-2"/><path d="M34.34 32.71c-7.86 6-16.21 11.47-22.06 19.82-2.09 2.47-.83 6.27-.28 9.32" class="cls-3"/><path d="M60 53.52a10.75 10.75 0 0 1-1 2.84 1.09 1.09 0 0 0 .38 1.43 1 1 0 0 0 1.42-.38 14.08 14.08 0 0 0 1.32-3.89 1 1 0 0 0-2.09 0z" class="cls-4"/><path d="M58 57.84a.79.79 0 0 0 0-1.57.79.79 0 0 0 0 1.57z" class="cls-5"/><path d="M58.83 57a6.31 6.31 0 0 0 .08-.76.79.79 0 0 0-1.57 0v.34a.82.82 0 0 0 .55 1 .78.78 0 0 0 1-.55z" class="cls-5"/><path d="M57.37 57.52c.13.36.25.72.36 1.09a.1.1 0 0 0 .15.06.81.81 0 0 0 .27-.38c.1-.24.25-.46.33-.71 0-.07 0-.16-.13-.13-.34.14-.47.53-.58.86l.2.06a2.62 2.62 0 0 0 0-.79c0-.1-.18-.15-.2 0s0 .35-.07.52l.21.06a.82.82 0 0 0 0-.41.1.1 0 0 0-.19 0 .39.39 0 0 0-.07.23.11.11 0 0 0 .16.06c.12-.06 0-.24-.1-.18l.16.06v-.07h-.19v.29c0 .13.18.19.21.06s0-.35.06-.53h-.21a2.25 2.25 0 0 1 0 .73c0 .13.16.19.2.06s.21-.62.44-.72l-.13-.12a2.7 2.7 0 0 1-.51 1l.16.06c-.11-.36-.23-.73-.36-1.09 0-.12-.25-.07-.2.06zm1.37-1.2a.86.86 0 0 1-.11.33c-.05.12.13.22.18.1a1 1 0 0 0 .13-.38c0-.13-.19-.19-.2 0z" class="cls-5"/><path d="M58.81 56.81a4.86 4.86 0 0 0-.2.74l.15-.53-.06.11a1.07 1.07 0 0 0 .38 1.42 1.05 1.05 0 0 0 1.43-.37 2 2 0 0 0 .2-.76l-.14.52a2.27 2.27 0 0 0 .26-.57c.39-1.29-1.63-1.84-2-.56z" class="cls-4"/><path d="M59.55 58.88a1 1 0 0 0 0-2.09 1 1 0 0 0 0 2.09z" class="cls-4"/><path d="M59.52 58.9a1 1 0 0 0 0-2.09 1 1 0 0 0 0 2.09z" class="cls-4"/><path d="M59.47 59a1 1 0 0 0 0-2.09 1 1 0 0 0 0 2.09zm.23-9.19a20.56 20.56 0 0 1 .4 3.19c.06 1.34 2.15 1.35 2.09 0a23.71 23.71 0 0 0-.47-3.76c-.27-1.32-2.29-.76-2 .55z" class="cls-4"/><path d="M60.63 49.82a1 1 0 0 0 0-2.09 1 1 0 0 0 0 2.09z" class="cls-4"/><path d="M60.59 50a1 1 0 0 0 0-2.09 1 1 0 0 0 0 2.09zM8 58.19a25.25 25.25 0 0 0 4.74 5.16c1 .89 2.48-.58 1.48-1.48a23.61 23.61 0 0 1-4.42-4.73c-.72-1.13-2.53-.08-1.8 1z" class="cls-4"/><path d="M9.36 60.88a8.52 8.52 0 0 0 1.54 1.52 1.05 1.05 0 0 0 1.43-.4 1.07 1.07 0 0 0-.33-1.4 6.32 6.32 0 0 1-1.12-1.19 1 1 0 1 0-1.48 1.47z" class="cls-4"/><path d="M56.62 57.16a13.71 13.71 0 0 1 .5 1.61c.26.62 1.16.09.9-.53a11.39 11.39 0 0 0-.5-1.6c-.36-.57-1.26 0-.9.52z" class="cls-5"/><path d="M58 58.56c-.1.2-.21.39-.32.58a1 1 0 0 0 1.8 1.06l.33-.59c.61-1.19-1.19-2.25-1.81-1z" class="cls-4"/><path d="M57.07 58.89a1.52 1.52 0 0 1 .09.28.26.26 0 0 0 .48.06.92.92 0 0 0 .13-.21c.15-.3-.3-.57-.45-.27a1 1 0 0 1-.13.22l.48.06c0-.09-.06-.19-.1-.28-.11-.31-.62-.17-.5.14z" class="cls-5"/><path d="M13.58 61.14a1.57 1.57 0 0 1-.65-.39c-.23-.16-.48-.3-.73-.45-1.15-.7-2.2 1.11-1 1.81a6.38 6.38 0 0 0 1.87 1 1.06 1.06 0 0 0 1.28-.73 1 1 0 0 0-.72-1.28zm-5.97-3.6a2.47 2.47 0 0 1 .21.65 1 1 0 1 0 2-.56 4.23 4.23 0 0 0-.42-1.14 1 1 0 0 0-1.4-.38 1.07 1.07 0 0 0-.38 1.43z" class="cls-4"/></symbol><symbol id="logo-256" viewBox="0 0 256 256"><defs><style>.cls-1{fill:#231f20;stroke:#fff;stroke-width:11.54px;stroke-miterlimit:10}.cls-2,.cls-3{stroke-miterlimit:10;fill:none;stroke:#62c7c7}.cls-2{stroke-width:19.78px}.cls-3{stroke-width:14.84px}.cls-4{fill:#fff}.cls-5{fill:#62c7c7}</style></defs><path d="M62.14 251.8S-3.48 218 37.54 137.1s41-87.89 41-87.89l-5.86-41 38.67 15.24h46.87L188.27 0v45.7l50.44 135.77c6.8 18.31 5.31 38.87-4.82 55.56-4.94 8.13-11.37 14.56-19.4 14.77-22.25.59-152.35 0-152.35 0z" class="cls-1"/><path d="M235.56 222.87c-3.12-12.24-3.12-23.78-11.37-32-29.67-28-59.34-51.1-79.12-85.72-9.89-14.86 4.93-31.34 18.13-37.94 14.8 1.65 45.88 11.42 59.8 16.9" class="cls-2"/><path d="M138.16 129.1c-31 23.83-64 45.26-87 78.23-8.24 9.89-3.3 24.73-1.21 36.75" class="cls-3"/><path d="M239.44 211.24c-.46 3.95-2.51 7.6-4.06 11.2-.88 2.06-.59 4.39 1.48 5.64 1.73 1 4.77.56 5.64-1.48 2.17-5.07 4.54-9.82 5.18-15.36.26-2.22-2.08-4.12-4.12-4.12-2.44 0-3.86 1.9-4.12 4.12z" class="cls-4"/><path d="M231.34 228.28c4 0 4-6.18 0-6.18s-4 6.18 0 6.18z" class="cls-5"/><path d="M234.84 224.77a19.06 19.06 0 0 0 .28-3 3.09 3.09 0 1 0-6.18 0 13.83 13.83 0 0 1-.12 1.83l.11-.82c0 .12 0 .25-.05.37a3.39 3.39 0 0 0 .31 2.38 3.17 3.17 0 0 0 1.85 1.42 3.14 3.14 0 0 0 2.38-.31 3 3 0 0 0 1.42-1.85z" class="cls-5"/><path d="M229.05 227c.54 1.42 1 2.85 1.42 4.3a.41.41 0 0 0 .6.25c.7-.32.9-1.13 1.18-1.78a12.44 12.44 0 0 0 1.2-2.53.41.41 0 0 0-.51-.5c-1.3.29-1.95 2.26-2.28 3.39l.79.22a9.06 9.06 0 0 0 .09-3.2c-.06-.43-.68-.36-.79 0-.22.68-.05 1.4-.25 2.08l.8.22a3 3 0 0 0-.09-1.62c-.09-.26-.48-.44-.69-.18a1.18 1.18 0 0 0-.34 1 .44.44 0 0 0 .4.31.38.38 0 0 0 .35-.21c.23-.48-.48-.89-.71-.42l.36-.21.4.3.12-.19-.69-.19a2.07 2.07 0 0 1 .09 1.18.42.42 0 0 0 .8.22c.2-.69 0-1.41.24-2.09h-.79a8 8 0 0 1-.09 2.77.41.41 0 0 0 .79.22c.23-.75.81-2.62 1.71-2.82l-.5-.51a9.08 9.08 0 0 1-1 2c-.26.56-.43 1.56-1 1.84l.6.24q-.6-2.18-1.41-4.29c-.19-.5-1-.28-.8.21zm5.39-4.63a2.88 2.88 0 0 1-.39 1.21.41.41 0 0 0 .72.41 4 4 0 0 0 .49-1.62c.05-.53-.77-.52-.82 0z" class="cls-5"/><path d="M234.75 224.22c-.08.27-.16.55-.27.82l.42-1-.07.12.64-.83a7.1 7.1 0 0 0-1.1 1.67 6 6 0 0 0-.4 2.1l.15-1.1v.16l.42-1-.07.15.64-.84-.1.13a4.48 4.48 0 0 0-1.2 2.91 4.2 4.2 0 0 0 1.2 2.91 4.13 4.13 0 0 0 2.92 1.21 4 4 0 0 0 2.91-1.21 5.37 5.37 0 0 0 1.23-2.08 5.75 5.75 0 0 0 .19-1.6l-.14 1.1v-.17l-.41 1 .07-.12-.65.83a7 7 0 0 0 1.31-2.17 7.86 7.86 0 0 0 .27-.82 4.12 4.12 0 1 0-7.95-2.19z" class="cls-4"/><path d="M237.66 232.39c5.31 0 5.32-8.24 0-8.24s-5.31 8.24 0 8.24z" class="cls-4"/><path d="M237.56 232.47c5.3 0 5.31-8.24 0-8.24s-5.31 8.24 0 8.24z" class="cls-4"/><path d="M237.36 232.65c5.3 0 5.31-8.24 0-8.24s-5.32 8.24 0 8.24zm.92-36.05a78.09 78.09 0 0 1 1.56 12.65c.23 5.29 8.47 5.32 8.24 0a92.62 92.62 0 0 0-1.85-14.84c-1.08-5.19-9-3-7.95 2.19z" class="cls-4"/><path d="M241.91 196.62c5.31 0 5.32-8.25 0-8.25s-5.31 8.25 0 8.25z" class="cls-4"/><path d="M241.78 197.3c5.3 0 5.31-8.24 0-8.24s-5.32 8.24 0 8.24zM34.14 229.68c5 7.87 11.78 14.17 18.71 20.35 3.95 3.51 9.8-2.3 5.83-5.83-6.38-5.69-12.79-11.43-17.43-18.68-2.84-4.46-10-.33-7.11 4.16z" class="cls-4"/><path d="M39.59 240.29c1.92 2.17 3.62 4.37 6.08 6a4.16 4.16 0 0 0 5.64-1.48 4.22 4.22 0 0 0-1.48-5.64c-.17-.11-.88-.76-.25-.15-.16-.16-.34-.3-.51-.45-.46-.43-.89-.89-1.31-1.36-.8-.9-1.55-1.84-2.34-2.74a4.15 4.15 0 0 0-5.83 0 4.22 4.22 0 0 0 0 5.83z" class="cls-4"/><path d="M226.09 225.61a7 7 0 0 1 .86 2.84 16 16 0 0 0 1.11 3.5 2.08 2.08 0 0 0 2.82.74 2.13 2.13 0 0 0 .74-2.82c-.9-2.07-.69-4.41-2-6.34-1.47-2.19-5-.13-3.56 2.08z" class="cls-5"/><path d="M231.6 231.11q-.6 1.19-1.29 2.31a4.12 4.12 0 1 0 7.11 4.16c.47-.75.9-1.52 1.3-2.31a4.4 4.4 0 0 0 .41-3.18 4.13 4.13 0 0 0-5.07-2.88 4.12 4.12 0 0 0-2.46 1.9z" class="cls-4"/><path d="M227.89 232.43a8.46 8.46 0 0 1 .36 1.11 1 1 0 0 0 1.89.24 4.6 4.6 0 0 0 .5-.86 1 1 0 1 0-1.78-1 4.6 4.6 0 0 1-.5.86l1.88.25a8.5 8.5 0 0 0-.37-1.11 1.06 1.06 0 0 0-1.26-.72 1 1 0 0 0-.72 1.27z" class="cls-5"/><path d="M56.22 241.29c-.28-.06-.56-.11-.84-.19.39.12 0 0-.19-.11.35.24 0-.05-.16-.16a16.06 16.06 0 0 0-1.29-1c-.94-.65-2-1.22-2.93-1.81a4.12 4.12 0 1 0-4.16 7.11l1.67 1 .84.52c.62.36-.2-.2.2.15a9.85 9.85 0 0 0 4.64 2.44c2.11.41 4.55-.6 5.07-2.88.46-2-.62-4.63-2.88-5.07zM32.68 227.1c.08.14.15.29.23.44.18.4.14.3-.11-.29a4.54 4.54 0 0 0 .26.7 14.33 14.33 0 0 1 .45 1.71 4.13 4.13 0 0 0 5.06 2.87 4.22 4.22 0 0 0 2.88-5.07 16.57 16.57 0 0 0-1.65-4.52 4.15 4.15 0 0 0-5.64-1.48 4.21 4.21 0 0 0-1.48 5.64z" class="cls-4"/></symbol><symbol id="next" viewBox="0 0 67.44 71.04"><defs><style>.cls-1,.cls-2{fill:none;stroke:#231f20;stroke-miterlimit:10}.cls-1{stroke-width:5.14px}.cls-2{stroke-width:5.56px}</style></defs><path d="M5.7 34.33h37.98" class="cls-1"/><path d="M43.68 22.15L57.53 36 43.68 47.94" class="cls-2"/></symbol><symbol id="twitter" viewBox="0 0 67.44 71.04"><defs><style>.cls-1{fill:#f6f6f7;stroke:#f6f6f7;stroke-linecap:round;stroke-miterlimit:10;stroke-width:.75px}.cls-2{fill:#64c7c7}</style></defs><path d="M61.2 67.43h-55A4.29 4.29 0 0 1 2 63.14V7.91a4.3 4.3 0 0 1 4.29-4.3h55a4.31 4.31 0 0 1 4.3 4.3v55.25a4.29 4.29 0 0 1-4.39 4.27z" class="cls-1"/><g id="twitter"><g id="layer1"><path id="path3611" d="M23 59.06c21.86 0 33.81-18.11 33.81-33.81v-1.54a24.09 24.09 0 0 0 5.92-6.16 23.36 23.36 0 0 1-6.82 1.87 12 12 0 0 0 5.23-6.57 23.73 23.73 0 0 1-7.54 2.88A11.88 11.88 0 0 0 33 23.85a11.34 11.34 0 0 0 .31 2.7 33.74 33.74 0 0 1-24.5-12.42 11.72 11.72 0 0 0-1.61 6A11.89 11.89 0 0 0 12.49 30a12 12 0 0 1-5.39-1.49v.16a11.89 11.89 0 0 0 9.54 11.64 11.53 11.53 0 0 1-5.36.21 11.9 11.9 0 0 0 11.1 8.26 23.81 23.81 0 0 1-14.75 5.1 26.73 26.73 0 0 1-2.84-.16A33.36 33.36 0 0 0 23 59.06" class="cls-2"/></g></g></symbol><symbol id="cancel" viewBox="0 0 67.44 71.04"><defs><style>.cls-1{fill:none;stroke:#231f20;stroke-miterlimit:10;stroke-width:6.45px}</style></defs><path d="M18.36 16.61l35.9 37.05m-35.14.7L53.51 15.9" class="cls-1"/></symbol><symbol id="cart" viewBox="0 0 67.44 71.04"><defs><style>.cls-1{fill:#231f20;stroke:#fff;stroke-width:1.33px}.cls-1,.cls-2,.cls-3,.cls-6,.cls-7{stroke-miterlimit:10}.cls-2,.cls-3{fill:none;stroke:#64c7c7}.cls-2{stroke-width:3.08px}.cls-3{stroke-width:3.86px}.cls-4{fill:#fff}.cls-5{fill:#64c7c7}.cls-6,.cls-7{fill:#f8f8f8;stroke:#f8f8f8;stroke-linecap:round}.cls-6{stroke-width:4.44px}.cls-7{stroke-width:3.86px}</style></defs><g id="Layer_2-2"><path d="M28.13 48.25s-12.2-6.32-4.63-21.39 7.65-16.31 7.65-16.31L30 2.9l7.21 2.8H46l5.59-4.34v8.53L61 35.16a12 12 0 0 1-.88 10.37c-1 1.47-2.13 2.64-3.6 2.72-4.21.07-28.39 0-28.39 0z" class="cls-1"/><path d="M60.39 42.88c-.58-2.28-.58-4.48-2.13-6-5.51-5.22-11-9.55-14.69-16-1.84-2.72.88-5.81 3.38-7.06A60.79 60.79 0 0 1 58 17" class="cls-2"/><path d="M42.24 25.39c-5.73 4.41-11.9 8.45-16.16 14.55-1.55 1.84-.67 4.63-.22 6.84" class="cls-3"/><path d="M61.13 40.68a8.16 8.16 0 0 1-.74 2.13.74.74 0 0 0 .21 1 .82.82 0 0 0 1.11-.3 13.53 13.53 0 0 0 1-2.86c.08-.37-.37-.74-.81-.74s-.7.4-.77.77z" class="cls-4"/><path d="M59.59 43.84a.59.59 0 0 0 .75-.35.6.6 0 0 0-.35-.76.55.55 0 0 0-.4 0 .59.59 0 0 0-.41 1.11.58.58 0 0 0 .41 0z" class="cls-5"/><path d="M60.25 43.25a2 2 0 0 0 .07-.59c0-.73-1.1-.73-1.18 0v.22c0 .37.08.66.45.74s.66-.08.66-.37z" class="cls-5"/><path d="M59.22 43.62l.22.8c0 .08.07.08.15.08a.37.37 0 0 0 .14-.3l.3-.51c0-.07-.08-.15-.08-.07s-.36.36-.44.58h.15v-.58c0-.08-.15-.15-.15 0a.75.75 0 0 1-.07.36h.15c.07-.07.07-.14 0-.29s-.08-.07-.15 0-.08.07 0 .15a.07.07 0 0 0 .07.07c.08-.07 0-.15-.07-.15V44c0 .08.15.15.15 0a.57.57 0 0 0 .07-.36h-.15v.51c0 .07.08.15.15.07s.15-.51.29-.51v-.15c-.07.15-.22.66-.36.74h.07l-.22-.81c-.08-.15-.22-.07-.15 0zm.95-.89a.29.29 0 0 1-.07.22c0 .15.15.22.15.15a.59.59 0 0 0 .07-.29c.07-.15-.07-.15-.15-.08z" class="cls-5"/><path d="M60.25 43.1c0 .15-.15.37-.15.52l.15-.37h-.08a.88.88 0 0 0 .3 1.1.81.81 0 0 0 1-.29 1.75 1.75 0 0 0 .14-.59v.37a.67.67 0 0 0 .15-.37.77.77 0 1 0-1.44-.47z" class="cls-4"/><path d="M60.76 44.64a.8.8 0 0 0 .53-1 .82.82 0 0 0-.53-.53.81.81 0 0 0-.53 1 .78.78 0 0 0 .53.53z" class="cls-4"/><path d="M60.76 44.64a.8.8 0 0 0 .53-1 .82.82 0 0 0-.53-.53.81.81 0 0 0-.53 1 .78.78 0 0 0 .53.53z" class="cls-4"/><path d="M60.76 44.64a.73.73 0 0 0 .74-.73.74.74 0 1 0-1.47 0 .73.73 0 0 0 .73.73zm.15-6.64a12.38 12.38 0 0 1 .29 2.35.81.81 0 0 0 1.55.48 1 1 0 0 0 0-.48 19.12 19.12 0 0 0-.37-2.72c-.22-1.07-1.69-.63-1.47.37z" class="cls-4"/><path d="M61.57 38a.78.78 0 1 0-.77-.77.77.77 0 0 0 .77.77z" class="cls-4"/><path d="M61.57 38.1a.8.8 0 0 0 .53-1 .82.82 0 0 0-.53-.53.81.81 0 0 0-1 .53.81.81 0 0 0 1 1zm-38.65 6.03A21.22 21.22 0 0 0 26.37 48c.73.59 1.84-.44 1.1-1.1a18.67 18.67 0 0 1-3.23-3.53c-.52-.86-1.84-.05-1.32.76z" class="cls-4"/><path d="M23.94 46.11a5.31 5.31 0 0 0 1.11 1.11.73.73 0 0 0 1-.26.82.82 0 0 0-.22-1A4.94 4.94 0 0 1 25 45a.75.75 0 0 0-1.09 1z" class="cls-4"/><path d="M58.63 43.4c.22.29.22.8.37 1.17s.88.07.66-.44a7.32 7.32 0 0 0-.37-1.13c-.22-.41-.88 0-.66.4z" class="cls-5"/><path d="M59.66 44.42l-.22.37a.8.8 0 0 0 .57 1 .81.81 0 0 0 .75-.18l.22-.44c.44-.89-.88-1.63-1.32-.75z" class="cls-4"/><path d="M59 44.64a.29.29 0 0 0 .07.22c0 .15.22.15.29 0s.08-.07.15-.14a.23.23 0 0 0-.23-.21.35.35 0 0 0-.14.06.26.26 0 0 0-.07.15h.37a.28.28 0 0 1-.08-.15.21.21 0 0 0-.12-.28.21.21 0 0 0-.29.13.2.2 0 0 0 .05.22z" class="cls-5"/><path d="M27 46.26c-.22 0-.29-.15-.51-.22l-.49-.37c-.81-.51-1.61.81-.73 1.33a4.8 4.8 0 0 0 1.32.8.81.81 0 0 0 1-.58.9.9 0 0 0-.59-.96zm-4.38-2.64a1.5 1.5 0 0 1 .15.51.8.8 0 0 0 .95.51.66.66 0 0 0 .59-.73.81.81 0 0 0-.07-.22 4 4 0 0 0-.3-.81.73.73 0 0 0-1-.31.81.81 0 0 0-.32 1.05z" class="cls-4"/></g><path d="M16.11 36.78l46 .42c2.27 0 3.78 2 2.86 3.76l-7.66 14.73a3.22 3.22 0 0 1-2.9 1.61H25.72a3.14 3.14 0 0 1-3-1.92l-6.51-18.33a2.45 2.45 0 0 0-.26-.51l-.58-.91c-.56-.86-4.79-5.11-4.79-5.11H2.22" class="cls-6"/><circle cx="52.68" cy="64.49" r="4.62" class="cls-7"/><circle cx="29.51" cy="64.49" r="4.62" class="cls-7"/></symbol><symbol id="facebook" viewBox="0 0 67.44 71.04"><defs><style>.cls-1{fill:#f6f6f7}.cls-2{fill:#64c7c7}</style></defs><path d="M2.06 63.32V6.61c0-.12.07-.25.09-.37A3.38 3.38 0 0 1 5 3.38c.14 0 .25-.08.37-.1h56.71a2.24 2.24 0 0 0 .37.1 3.35 3.35 0 0 1 2.84 2.84c0 .14.08.25.1.37v56.77a1.6 1.6 0 0 0-.1.31 3.35 3.35 0 0 1-2.84 2.84 1.25 1.25 0 0 0-.31.1H45.81V42.07h7.75c.5 0 .5 0 .56-.5.15-1.32.33-2.65.5-4 .21-1.59.41-3.18.62-4.75 0-.36 0-.36-.35-.36h-9.06v-6.22a8.48 8.48 0 0 1 .17-1.66 3 3 0 0 1 2.42-2.51 11.17 11.17 0 0 1 2.13-.26h4.73c.25 0 .33-.07.33-.33v-8.05c0-.22-.08-.29-.29-.31-.39 0-.78-.08-1.16-.1-2.08-.08-4.15-.17-6.22-.19a13.31 13.31 0 0 0-5.25 1 10.35 10.35 0 0 0-5.54 5.25 13.34 13.34 0 0 0-1.28 5.72v7.71h-8c-.27 0-.35 0-.35.32v8.93c0 .33 0 .35.35.35h8v24.13a2.42 2.42 0 0 1 0 .39H5.29a1.86 1.86 0 0 0-.31-.1 3.37 3.37 0 0 1-2.85-2.84 1.61 1.61 0 0 0-.07-.37z" class="cls-1"/><path d="M35.72 66.81V42.27h-8c-.35 0-.35 0-.35-.35V33c0-.27.08-.35.35-.33h8v-7.71A13.26 13.26 0 0 1 37 19.24 10.38 10.38 0 0 1 42.57 14a12.87 12.87 0 0 1 5.25-1c2.07 0 4.15.12 6.22.19.39 0 .77.08 1.16.1.21 0 .29.1.29.31v8.06c0 .25-.08.33-.33.33h-4.72a10.78 10.78 0 0 0-2.13.25 3 3 0 0 0-2.42 2.52 7.63 7.63 0 0 0-.18 1.64v6.05a1 1 0 0 0 0 .21h9.06c.39 0 .39 0 .35.37-.21 1.59-.42 3.17-.62 4.74-.17 1.32-.33 2.66-.5 4-.06.51 0 .51-.56.51h-7.73v24.51c-3.33.02-6.66.02-9.99.02z" class="cls-2"/></symbol><symbol id="instagram" viewBox="0 0 67.44 71.04"><defs><style>.cls-1{fill:#f6f6f7;stroke:#f6f6f7;stroke-linecap:round;stroke-miterlimit:10;stroke-width:.75px}.cls-2{fill:#64c7c7}</style></defs><path d="M61 67.29H6.23A4.27 4.27 0 0 1 2 63V8a4.27 4.27 0 0 1 4.23-4.25H61A4.27 4.27 0 0 1 65.22 8v55A4.26 4.26 0 0 1 61 67.29z" class="cls-1"/><path d="M40.42 62.18H26.76A19.27 19.27 0 0 1 7.54 43V27.72A19.26 19.26 0 0 1 26.76 8.51h13.66a19.27 19.27 0 0 1 19.21 19.21V43a19.28 19.28 0 0 1-19.21 19.18zm4.06-4A11.22 11.22 0 0 0 55.62 47V23.7a11.22 11.22 0 0 0-11.14-11.19H22.71a11 11 0 0 0-7.85 3.29 11.16 11.16 0 0 0-3.29 7.9V47a11.23 11.23 0 0 0 11.14 11.14z" class="cls-2"/><path d="M48 35.13a14.34 14.34 0 1 1-14.34-14.37A14.34 14.34 0 0 1 48 35.13zm-14.39-9.4a9.41 9.41 0 1 0 9.39 9.4 9.4 9.4 0 0 0-9.39-9.4z" class="cls-2"/></symbol><symbol id="twitter" viewBox="0 0 67.44 71.04"><defs><style>.cls-1{fill:#f6f6f7;stroke:#f6f6f7;stroke-linecap:round;stroke-miterlimit:10;stroke-width:.75px}.cls-2{fill:#64c7c7}</style></defs><path d="M61.2 67.43h-55A4.29 4.29 0 0 1 2 63.14V7.91a4.3 4.3 0 0 1 4.29-4.3h55a4.31 4.31 0 0 1 4.3 4.3v55.25a4.29 4.29 0 0 1-4.39 4.27z" class="cls-1"/><g id="twitter"><g id="layer1"><path id="path3611" d="M23 59.06c21.86 0 33.81-18.11 33.81-33.81v-1.54a24.09 24.09 0 0 0 5.92-6.16 23.36 23.36 0 0 1-6.82 1.87 12 12 0 0 0 5.23-6.57 23.73 23.73 0 0 1-7.54 2.88A11.88 11.88 0 0 0 33 23.85a11.34 11.34 0 0 0 .31 2.7 33.74 33.74 0 0 1-24.5-12.42 11.72 11.72 0 0 0-1.61 6A11.89 11.89 0 0 0 12.49 30a12 12 0 0 1-5.39-1.49v.16a11.89 11.89 0 0 0 9.54 11.64 11.53 11.53 0 0 1-5.36.21 11.9 11.9 0 0 0 11.1 8.26 23.81 23.81 0 0 1-14.75 5.1 26.73 26.73 0 0 1-2.84-.16A33.36 33.36 0 0 0 23 59.06" class="cls-2"/></g></g></symbol><symbol id="next" viewBox="0 0 67.44 71.04"><defs><style>.cls-1,.cls-2{fill:none;stroke:#231f20;stroke-miterlimit:10}.cls-1{stroke-width:5.14px}.cls-2{stroke-width:5.56px}</style></defs><path d="M5.7 34.33h37.98" class="cls-1"/><path d="M43.68 22.15L57.53 36 43.68 47.94" class="cls-2"/></symbol></svg>