<svg xmlns="http://www.w3.org/2000/svg"><symbol id="cancel" viewBox="0 0 64 64"><defs><style>.cls-1{fill:none;stroke:#231f20;stroke-miterlimit:10;stroke-width:6.45px}</style></defs><path d="M16.75 14.34l35.9 37.05m-35.14.71l34.38-38.46" class="cls-1"/></symbol><symbol id="facebook" viewBox="0 0 64 64"><defs><style>.cls-1{fill:#64c7c7}</style></defs><path d="M33.66 63.54V39h-8c-.35 0-.35 0-.35-.34v-8.93c0-.27.08-.35.35-.33h8v-7.71A13.24 13.24 0 0 1 35 16a10.31 10.31 0 0 1 5.54-5.25 12.84 12.84 0 0 1 5.25-1c2.07 0 4.14.12 6.21.19.39 0 .78.08 1.17.1.21 0 .29.1.29.31v8.05c0 .25-.08.33-.33.33H48.4a10.87 10.87 0 0 0-2.13.25 3 3 0 0 0-2.42 2.52 7.61 7.61 0 0 0-.17 1.64v6a1.94 1.94 0 0 0 0 .22h9.07c.39 0 .39 0 .35.37-.22 1.58-.43 3.17-.62 4.74-.18 1.32-.33 2.65-.51 4-.05.5 0 .5-.56.5h-7.75v24.55c-3.34.02-6.66.02-10 .02z" class="cls-1"/></symbol><symbol id="cart" viewBox="0 0 64 64"><defs><style>.cls-1{fill:#231f20}.cls-2{fill:#fff}.cls-3{fill:#64c7c7}.cls-4{fill:#f8f8f8}</style></defs><g id="Layer_2"><path d="M25 42.63S16 38 21.56 26.9s5.62-12 5.62-12l-.81-5.62 5.3 2.05h6.43l4.1-3.19v6.27L49.12 33a8.78 8.78 0 0 1-.65 7.62 3.7 3.7 0 0 1-2.65 2c-3.08.06-20.82.01-20.82.01z" class="cls-1"/><path d="M39 43.32H24.8l-.14-.07c-.1 0-9.49-5.08-3.69-16.62 4.61-9.17 5.4-11.33 5.53-11.73l-.95-6.62 6.24 2.43h6.08l5-3.89v7.48l6.88 18.48a9.45 9.45 0 0 1-.7 8.19c-1 1.51-2 2.27-3.19 2.32s-3.75.03-6.86.03zM25.14 42h20.67c.69 0 1.38-.59 2.1-1.69a8.1 8.1 0 0 0 .59-7l-7-18.83V9.52L38.33 12h-6.9l-4.24-1.64.66 4.56V15c0 .67-2.12 5.14-5.69 12.25C17.25 37 24 41.33 25.14 42z" class="cls-2"/><path d="M47.2 39.07c-.12-.46-.21-.91-.29-1.35a4.28 4.28 0 0 0-.85-2.3c-.75-.71-1.51-1.4-2.25-2.09-3.34-3.06-6.5-5.95-8.81-10a4 4 0 0 1-.53-3.27A7.1 7.1 0 0 1 38.11 16l.41-.2.44.05a45.33 45.33 0 0 1 8.57 2.42l-1.14 2.86a47.07 47.07 0 0 0-7.29-2.15 3.76 3.76 0 0 0-1.65 1.91.91.91 0 0 0 .14.81l.06.11c2.08 3.65 5.07 6.39 8.24 9.29.76.7 1.52 1.4 2.29 2.13a6.8 6.8 0 0 1 1.75 3.94c.07.38.15.77.25 1.17zm-25.8 2.86c0-.19-.08-.39-.13-.59-.37-1.73-.88-4.09.65-6 2.78-4 6.52-6.75 10.14-9.46l2.11-1.6 2.35 3.06c-.71.55-1.43 1.09-2.15 1.63-3.55 2.65-6.9 5.16-9.33 8.65l-.11.13c-.38.46-.11 1.73.12 2.76 0 .22.09.44.13.65z" class="cls-3"/><path d="M49.23 37.06a6.21 6.21 0 0 1-.54 1.57.54.54 0 0 0 .15.75.6.6 0 0 0 .81-.22 9.68 9.68 0 0 0 .7-2.11c.06-.27-.27-.54-.59-.54s-.48.28-.53.55z" class="cls-2"/><path d="M48.09 39.39a.44.44 0 0 0 .56-.26.43.43 0 0 0-.26-.55.39.39 0 0 0-.3 0 .42.42 0 0 0-.55.25.44.44 0 0 0 .25.56.51.51 0 0 0 .3 0z" class="cls-3"/><path d="M48.58 39a1.24 1.24 0 0 0 .05-.43.43.43 0 0 0-.86 0v.16c0 .27 0 .49.32.54s.49-.1.49-.27z" class="cls-3"/><path d="M47.82 39.22l.17.6h.1a.26.26 0 0 0 .11-.21l.22-.38c0-.06-.06-.11-.06-.06s-.27.27-.32.44h.11v-.44s-.11-.1-.11 0a.76.76 0 0 1 0 .27h.1c.06-.05.06-.1 0-.21s-.05-.06-.1 0-.06 0 0 .11a.06.06 0 0 0 0-.11v.16c0 .06.1.11.1 0a.36.36 0 0 0 .06-.27H48v.38c0 .06.05.11.11.06s.11-.38.21-.38v-.11c0 .11-.16.49-.27.54h.06l-.11-.49c-.06-.11-.17-.06-.11 0zm.71-.64a.27.27 0 0 1-.06.16c0 .11.11.16.11.11a.36.36 0 0 0 .05-.22c.06-.11-.05-.11-.1-.05z" class="cls-3"/><path d="M48.58 38.85c0 .1-.11.27-.11.37l.11-.27a.64.64 0 0 0 .21.81.6.6 0 0 0 .76-.21 1.36 1.36 0 0 0 .11-.43v.27a.45.45 0 0 0 .1-.27.56.56 0 1 0-1.08-.33z" class="cls-2"/><path d="M49 40a.59.59 0 0 0 .39-.74.45.45 0 1 0-.39.74z" class="cls-2"/><path d="M49 40a.59.59 0 0 0 .39-.74.45.45 0 1 0-.39.74z" class="cls-2"/><path d="M49 40a.54.54 0 1 0-.54-.54.54.54 0 0 0 .54.54zm.07-4.94a10.09 10.09 0 0 1 .21 1.73.6.6 0 0 0 .39.75.61.61 0 0 0 .75-.39.73.73 0 0 0 0-.36 13.54 13.54 0 0 0-.27-2 .56.56 0 1 0-1.08.27z" class="cls-2"/><path d="M49.55 35.06a.57.57 0 1 0-.55-.56.56.56 0 0 0 .55.56z" class="cls-2"/><path d="M49.55 35.17a.58.58 0 0 0 .39-.74.57.57 0 0 0-.39-.39.59.59 0 0 0-.35 1.13.53.53 0 0 0 .35 0zM21.13 39.6a15.41 15.41 0 0 0 2.54 2.81c.54.43 1.35-.32.81-.81A13.93 13.93 0 0 1 22.1 39c-.38-.59-1.35 0-.97.6z" class="cls-2"/><path d="M21.89 41.06a3.89 3.89 0 0 0 .81.81.54.54 0 0 0 .74-.19.59.59 0 0 0-.16-.76 4 4 0 0 1-.65-.65.55.55 0 0 0-.8.76z" class="cls-2"/><path d="M47.39 39.06a4.43 4.43 0 0 1 .27.87c.11.27.65 0 .49-.33a6.59 6.59 0 0 0-.27-.86c-.16-.27-.65 0-.49.32z" class="cls-3"/><path d="M48.15 39.82l-.16.27a.59.59 0 0 0 1 .59l.16-.32c.29-.65-.68-1.19-1-.54z" class="cls-2"/><path d="M47.66 40a.23.23 0 0 0 .06.16c0 .11.16.11.21 0s.06 0 .11-.11a.17.17 0 0 0-.17-.15.19.19 0 0 0-.1 0 .12.12 0 0 0-.05.1H48a.11.11 0 0 1-.06-.1.16.16 0 0 0-.3-.12.17.17 0 0 0 .02.22z" class="cls-3"/><path d="M24.16 41.17c-.17 0-.22-.11-.38-.16l-.38-.27c-.59-.38-1.19.59-.54 1a3.46 3.46 0 0 0 1 .59.59.59 0 0 0 .7-.43.64.64 0 0 0-.4-.73zm-3.25-1.95a1 1 0 0 1 .11.38.6.6 0 0 0 .7.38.49.49 0 0 0 .43-.54.3.3 0 0 0 0-.16 2.51 2.51 0 0 0-.21-.6.55.55 0 0 0-.73-.23.6.6 0 0 0-.3.77z" class="cls-2"/></g><path d="M16.13 34.2l33.8.31c1.67 0 2.78 1.47 2.11 2.76L46.42 48.1a2.37 2.37 0 0 1-2.13 1.18h-21.1a2.32 2.32 0 0 1-2.19-1.4L16.2 34.4a1.69 1.69 0 0 0-.2-.4l-.43-.67c-.41-.63-3.52-3.75-3.52-3.75H5.91" class="cls-4"/><path d="M44.29 51.51h-21.1a4.53 4.53 0 0 1-4.32-2.89L14.1 35.14l-.39-.58c-.22-.3-1.41-1.55-2.58-2.74H5.91a2.23 2.23 0 0 1 0-4.45H13l.65.66a53.44 53.44 0 0 1 3.71 4l32.64.25a4.66 4.66 0 0 1 3.94 2.16 3.92 3.92 0 0 1 .06 3.85l-5.61 10.84a4.62 4.62 0 0 1-4.1 2.38zM23 47a.65.65 0 0 0 .17 0h21.1a.43.43 0 0 0 .23 0l5.32-10.28-30.54-.28zm27.11-10.22z" class="cls-4"/><circle cx="43.01" cy="54.57" r="3.4" class="cls-4"/><path d="M43 59.9a5.33 5.33 0 1 1 5.33-5.33A5.33 5.33 0 0 1 43 59.9zm0-6.8a1.47 1.47 0 1 0 1.47 1.47A1.47 1.47 0 0 0 43 53.1z" class="cls-4"/><circle cx="25.98" cy="54.57" r="3.4" class="cls-4"/><path d="M26 59.9a5.33 5.33 0 1 1 5.33-5.33A5.33 5.33 0 0 1 26 59.9zm0-6.8a1.47 1.47 0 1 0 1.47 1.47A1.47 1.47 0 0 0 26 53.1z" class="cls-4"/></symbol><symbol id="instagram" viewBox="0 0 64 64"><defs><style>.cls-1{fill:#64c7c7}</style></defs><path d="M39.19 58.42H25.53A19.28 19.28 0 0 1 6.32 39.2V24A19.26 19.26 0 0 1 25.53 4.74h13.66A19.28 19.28 0 0 1 58.41 24v15.2a19.29 19.29 0 0 1-19.22 19.22zm4.07-4.05A11.23 11.23 0 0 0 54.4 43.19V19.93A11.23 11.23 0 0 0 43.26 8.75H21.49A11 11 0 0 0 13.63 12a11.14 11.14 0 0 0-3.29 7.89v23.3a11.23 11.23 0 0 0 11.15 11.18z" class="cls-1"/><path d="M46.78 31.37A14.34 14.34 0 1 1 32.44 17a14.34 14.34 0 0 1 14.34 14.37zM32.38 22a9.41 9.41 0 1 0 9.39 9.41A9.4 9.4 0 0 0 32.38 22z" class="cls-1"/></symbol><symbol id="twitter" viewBox="0 0 64 64"><defs><style>.cls-1{fill:#64c7c7}</style></defs><g id="twitter"><g id="layer1"><path id="path3611" d="M21.46 55.43c21.87 0 33.82-18.11 33.82-33.81v-1.54a24.3 24.3 0 0 0 5.93-6.16 23.36 23.36 0 0 1-6.82 1.87 12 12 0 0 0 5.22-6.57A23.73 23.73 0 0 1 52 12.1a11.88 11.88 0 0 0-20.54 8.12 11.34 11.34 0 0 0 .31 2.7A33.72 33.72 0 0 1 7.32 10.5a11.73 11.73 0 0 0-1.62 6 11.89 11.89 0 0 0 5.3 9.86 11.91 11.91 0 0 1-5.38-1.48V25a11.89 11.89 0 0 0 9.54 11.64 11.89 11.89 0 0 1-3.13.43 11.63 11.63 0 0 1-2.23-.22 11.88 11.88 0 0 0 11.09 8.26 23.81 23.81 0 0 1-14.76 5.13 26.87 26.87 0 0 1-2.84-.15 33.36 33.36 0 0 0 18.17 5.34" class="cls-1"/></g></g></symbol><symbol id="next" viewBox="0 0 64 64"><defs><style>.cls-1,.cls-2{fill:none;stroke:#231f20;stroke-miterlimit:10}.cls-1{stroke-width:5.14px}.cls-2{stroke-width:5.56px}</style></defs><path d="M4.5 32.15h37.98" class="cls-1"/><path d="M42.48 19.97l13.85 13.85-13.85 11.94" class="cls-2"/></symbol><symbol id="cancel" viewBox="0 0 64 64"><defs><style>.cls-1{fill:none;stroke:#231f20;stroke-miterlimit:10;stroke-width:6.45px}</style></defs><path d="M16.75 14.34l35.9 37.05m-35.14.71l34.38-38.46" class="cls-1"/></symbol><symbol id="cart" viewBox="0 0 64 64"><defs><style>.cls-1{fill:#231f20}.cls-2{fill:#fff}.cls-3{fill:#64c7c7}.cls-4{fill:#f8f8f8}</style></defs><g id="Layer_2"><path d="M25 42.63S16 38 21.56 26.9s5.62-12 5.62-12l-.81-5.62 5.3 2.05h6.43l4.1-3.19v6.27L49.12 33a8.78 8.78 0 0 1-.65 7.62 3.7 3.7 0 0 1-2.65 2c-3.08.06-20.82.01-20.82.01z" class="cls-1"/><path d="M39 43.32H24.8l-.14-.07c-.1 0-9.49-5.08-3.69-16.62 4.61-9.17 5.4-11.33 5.53-11.73l-.95-6.62 6.24 2.43h6.08l5-3.89v7.48l6.88 18.48a9.45 9.45 0 0 1-.7 8.19c-1 1.51-2 2.27-3.19 2.32s-3.75.03-6.86.03zM25.14 42h20.67c.69 0 1.38-.59 2.1-1.69a8.1 8.1 0 0 0 .59-7l-7-18.83V9.52L38.33 12h-6.9l-4.24-1.64.66 4.56V15c0 .67-2.12 5.14-5.69 12.25C17.25 37 24 41.33 25.14 42z" class="cls-2"/><path d="M47.2 39.07c-.12-.46-.21-.91-.29-1.35a4.28 4.28 0 0 0-.85-2.3c-.75-.71-1.51-1.4-2.25-2.09-3.34-3.06-6.5-5.95-8.81-10a4 4 0 0 1-.53-3.27A7.1 7.1 0 0 1 38.11 16l.41-.2.44.05a45.33 45.33 0 0 1 8.57 2.42l-1.14 2.86a47.07 47.07 0 0 0-7.29-2.15 3.76 3.76 0 0 0-1.65 1.91.91.91 0 0 0 .14.81l.06.11c2.08 3.65 5.07 6.39 8.24 9.29.76.7 1.52 1.4 2.29 2.13a6.8 6.8 0 0 1 1.75 3.94c.07.38.15.77.25 1.17zm-25.8 2.86c0-.19-.08-.39-.13-.59-.37-1.73-.88-4.09.65-6 2.78-4 6.52-6.75 10.14-9.46l2.11-1.6 2.35 3.06c-.71.55-1.43 1.09-2.15 1.63-3.55 2.65-6.9 5.16-9.33 8.65l-.11.13c-.38.46-.11 1.73.12 2.76 0 .22.09.44.13.65z" class="cls-3"/><path d="M49.23 37.06a6.21 6.21 0 0 1-.54 1.57.54.54 0 0 0 .15.75.6.6 0 0 0 .81-.22 9.68 9.68 0 0 0 .7-2.11c.06-.27-.27-.54-.59-.54s-.48.28-.53.55z" class="cls-2"/><path d="M48.09 39.39a.44.44 0 0 0 .56-.26.43.43 0 0 0-.26-.55.39.39 0 0 0-.3 0 .42.42 0 0 0-.55.25.44.44 0 0 0 .25.56.51.51 0 0 0 .3 0z" class="cls-3"/><path d="M48.58 39a1.24 1.24 0 0 0 .05-.43.43.43 0 0 0-.86 0v.16c0 .27 0 .49.32.54s.49-.1.49-.27z" class="cls-3"/><path d="M47.82 39.22l.17.6h.1a.26.26 0 0 0 .11-.21l.22-.38c0-.06-.06-.11-.06-.06s-.27.27-.32.44h.11v-.44s-.11-.1-.11 0a.76.76 0 0 1 0 .27h.1c.06-.05.06-.1 0-.21s-.05-.06-.1 0-.06 0 0 .11a.06.06 0 0 0 0-.11v.16c0 .06.1.11.1 0a.36.36 0 0 0 .06-.27H48v.38c0 .06.05.11.11.06s.11-.38.21-.38v-.11c0 .11-.16.49-.27.54h.06l-.11-.49c-.06-.11-.17-.06-.11 0zm.71-.64a.27.27 0 0 1-.06.16c0 .11.11.16.11.11a.36.36 0 0 0 .05-.22c.06-.11-.05-.11-.1-.05z" class="cls-3"/><path d="M48.58 38.85c0 .1-.11.27-.11.37l.11-.27a.64.64 0 0 0 .21.81.6.6 0 0 0 .76-.21 1.36 1.36 0 0 0 .11-.43v.27a.45.45 0 0 0 .1-.27.56.56 0 1 0-1.08-.33z" class="cls-2"/><path d="M49 40a.59.59 0 0 0 .39-.74.45.45 0 1 0-.39.74z" class="cls-2"/><path d="M49 40a.59.59 0 0 0 .39-.74.45.45 0 1 0-.39.74z" class="cls-2"/><path d="M49 40a.54.54 0 1 0-.54-.54.54.54 0 0 0 .54.54zm.07-4.94a10.09 10.09 0 0 1 .21 1.73.6.6 0 0 0 .39.75.61.61 0 0 0 .75-.39.73.73 0 0 0 0-.36 13.54 13.54 0 0 0-.27-2 .56.56 0 1 0-1.08.27z" class="cls-2"/><path d="M49.55 35.06a.57.57 0 1 0-.55-.56.56.56 0 0 0 .55.56z" class="cls-2"/><path d="M49.55 35.17a.58.58 0 0 0 .39-.74.57.57 0 0 0-.39-.39.59.59 0 0 0-.35 1.13.53.53 0 0 0 .35 0zM21.13 39.6a15.41 15.41 0 0 0 2.54 2.81c.54.43 1.35-.32.81-.81A13.93 13.93 0 0 1 22.1 39c-.38-.59-1.35 0-.97.6z" class="cls-2"/><path d="M21.89 41.06a3.89 3.89 0 0 0 .81.81.54.54 0 0 0 .74-.19.59.59 0 0 0-.16-.76 4 4 0 0 1-.65-.65.55.55 0 0 0-.8.76z" class="cls-2"/><path d="M47.39 39.06a4.43 4.43 0 0 1 .27.87c.11.27.65 0 .49-.33a6.59 6.59 0 0 0-.27-.86c-.16-.27-.65 0-.49.32z" class="cls-3"/><path d="M48.15 39.82l-.16.27a.59.59 0 0 0 1 .59l.16-.32c.29-.65-.68-1.19-1-.54z" class="cls-2"/><path d="M47.66 40a.23.23 0 0 0 .06.16c0 .11.16.11.21 0s.06 0 .11-.11a.17.17 0 0 0-.17-.15.19.19 0 0 0-.1 0 .12.12 0 0 0-.05.1H48a.11.11 0 0 1-.06-.1.16.16 0 0 0-.3-.12.17.17 0 0 0 .02.22z" class="cls-3"/><path d="M24.16 41.17c-.17 0-.22-.11-.38-.16l-.38-.27c-.59-.38-1.19.59-.54 1a3.46 3.46 0 0 0 1 .59.59.59 0 0 0 .7-.43.64.64 0 0 0-.4-.73zm-3.25-1.95a1 1 0 0 1 .11.38.6.6 0 0 0 .7.38.49.49 0 0 0 .43-.54.3.3 0 0 0 0-.16 2.51 2.51 0 0 0-.21-.6.55.55 0 0 0-.73-.23.6.6 0 0 0-.3.77z" class="cls-2"/></g><path d="M16.13 34.2l33.8.31c1.67 0 2.78 1.47 2.11 2.76L46.42 48.1a2.37 2.37 0 0 1-2.13 1.18h-21.1a2.32 2.32 0 0 1-2.19-1.4L16.2 34.4a1.69 1.69 0 0 0-.2-.4l-.43-.67c-.41-.63-3.52-3.75-3.52-3.75H5.91" class="cls-4"/><path d="M44.29 51.51h-21.1a4.53 4.53 0 0 1-4.32-2.89L14.1 35.14l-.39-.58c-.22-.3-1.41-1.55-2.58-2.74H5.91a2.23 2.23 0 0 1 0-4.45H13l.65.66a53.44 53.44 0 0 1 3.71 4l32.64.25a4.66 4.66 0 0 1 3.94 2.16 3.92 3.92 0 0 1 .06 3.85l-5.61 10.84a4.62 4.62 0 0 1-4.1 2.38zM23 47a.65.65 0 0 0 .17 0h21.1a.43.43 0 0 0 .23 0l5.32-10.28-30.54-.28zm27.11-10.22z" class="cls-4"/><circle cx="43.01" cy="54.57" r="3.4" class="cls-4"/><path d="M43 59.9a5.33 5.33 0 1 1 5.33-5.33A5.33 5.33 0 0 1 43 59.9zm0-6.8a1.47 1.47 0 1 0 1.47 1.47A1.47 1.47 0 0 0 43 53.1z" class="cls-4"/><circle cx="25.98" cy="54.57" r="3.4" class="cls-4"/><path d="M26 59.9a5.33 5.33 0 1 1 5.33-5.33A5.33 5.33 0 0 1 26 59.9zm0-6.8a1.47 1.47 0 1 0 1.47 1.47A1.47 1.47 0 0 0 26 53.1z" class="cls-4"/></symbol><symbol id="facebook" viewBox="0 0 64 64"><defs><style>.cls-1{fill:#64c7c7}</style></defs><path d="M33.66 63.54V39h-8c-.35 0-.35 0-.35-.34v-8.93c0-.27.08-.35.35-.33h8v-7.71A13.24 13.24 0 0 1 35 16a10.31 10.31 0 0 1 5.54-5.25 12.84 12.84 0 0 1 5.25-1c2.07 0 4.14.12 6.21.19.39 0 .78.08 1.17.1.21 0 .29.1.29.31v8.05c0 .25-.08.33-.33.33H48.4a10.87 10.87 0 0 0-2.13.25 3 3 0 0 0-2.42 2.52 7.61 7.61 0 0 0-.17 1.64v6a1.94 1.94 0 0 0 0 .22h9.07c.39 0 .39 0 .35.37-.22 1.58-.43 3.17-.62 4.74-.18 1.32-.33 2.65-.51 4-.05.5 0 .5-.56.5h-7.75v24.55c-3.34.02-6.66.02-10 .02z" class="cls-1"/></symbol><symbol id="instagram" viewBox="0 0 64 64"><defs><style>.cls-1{fill:#64c7c7}</style></defs><path d="M39.19 58.42H25.53A19.28 19.28 0 0 1 6.32 39.2V24A19.26 19.26 0 0 1 25.53 4.74h13.66A19.28 19.28 0 0 1 58.41 24v15.2a19.29 19.29 0 0 1-19.22 19.22zm4.07-4.05A11.23 11.23 0 0 0 54.4 43.19V19.93A11.23 11.23 0 0 0 43.26 8.75H21.49A11 11 0 0 0 13.63 12a11.14 11.14 0 0 0-3.29 7.89v23.3a11.23 11.23 0 0 0 11.15 11.18z" class="cls-1"/><path d="M46.78 31.37A14.34 14.34 0 1 1 32.44 17a14.34 14.34 0 0 1 14.34 14.37zM32.38 22a9.41 9.41 0 1 0 9.39 9.41A9.4 9.4 0 0 0 32.38 22z" class="cls-1"/></symbol><symbol id="next" viewBox="0 0 64 64"><defs><style>.cls-1,.cls-2{fill:none;stroke:#231f20;stroke-miterlimit:10}.cls-1{stroke-width:5.14px}.cls-2{stroke-width:5.56px}</style></defs><path d="M4.5 32.15h37.98" class="cls-1"/><path d="M42.48 19.97l13.85 13.85-13.85 11.94" class="cls-2"/></symbol><symbol id="twitter" viewBox="0 0 64 64"><defs><style>.cls-1{fill:#64c7c7}</style></defs><g id="twitter"><g id="layer1"><path id="path3611" d="M21.46 55.43c21.87 0 33.82-18.11 33.82-33.81v-1.54a24.3 24.3 0 0 0 5.93-6.16 23.36 23.36 0 0 1-6.82 1.87 12 12 0 0 0 5.22-6.57A23.73 23.73 0 0 1 52 12.1a11.88 11.88 0 0 0-20.54 8.12 11.34 11.34 0 0 0 .31 2.7A33.72 33.72 0 0 1 7.32 10.5a11.73 11.73 0 0 0-1.62 6 11.89 11.89 0 0 0 5.3 9.86 11.91 11.91 0 0 1-5.38-1.48V25a11.89 11.89 0 0 0 9.54 11.64 11.89 11.89 0 0 1-3.13.43 11.63 11.63 0 0 1-2.23-.22 11.88 11.88 0 0 0 11.09 8.26 23.81 23.81 0 0 1-14.76 5.13 26.87 26.87 0 0 1-2.84-.15 33.36 33.36 0 0 0 18.17 5.34" class="cls-1"/></g></g></symbol><symbol id="cancel" viewBox="0 0 64 64"><defs><style>.cls-1{fill:none;stroke:#231f20;stroke-miterlimit:10;stroke-width:6.45px}</style></defs><path d="M16.75 14.34l35.9 37.05m-35.14.71l34.38-38.46" class="cls-1"/></symbol><symbol id="facebook" viewBox="0 0 64 64"><defs><style>.cls-1{fill:#64c7c7}</style></defs><path d="M33.66 63.54V39h-8c-.35 0-.35 0-.35-.34v-8.93c0-.27.08-.35.35-.33h8v-7.71A13.24 13.24 0 0 1 35 16a10.31 10.31 0 0 1 5.54-5.25 12.84 12.84 0 0 1 5.25-1c2.07 0 4.14.12 6.21.19.39 0 .78.08 1.17.1.21 0 .29.1.29.31v8.05c0 .25-.08.33-.33.33H48.4a10.87 10.87 0 0 0-2.13.25 3 3 0 0 0-2.42 2.52 7.61 7.61 0 0 0-.17 1.64v6a1.94 1.94 0 0 0 0 .22h9.07c.39 0 .39 0 .35.37-.22 1.58-.43 3.17-.62 4.74-.18 1.32-.33 2.65-.51 4-.05.5 0 .5-.56.5h-7.75v24.55c-3.34.02-6.66.02-10 .02z" class="cls-1"/></symbol><symbol id="cart" viewBox="0 0 64 64"><defs><style>.cls-1{fill:#231f20}.cls-2{fill:#fff}.cls-3{fill:#64c7c7}.cls-4{fill:#f8f8f8}</style></defs><g id="Layer_2"><path d="M25 42.63S16 38 21.56 26.9s5.62-12 5.62-12l-.81-5.62 5.3 2.05h6.43l4.1-3.19v6.27L49.12 33a8.78 8.78 0 0 1-.65 7.62 3.7 3.7 0 0 1-2.65 2c-3.08.06-20.82.01-20.82.01z" class="cls-1"/><path d="M39 43.32H24.8l-.14-.07c-.1 0-9.49-5.08-3.69-16.62 4.61-9.17 5.4-11.33 5.53-11.73l-.95-6.62 6.24 2.43h6.08l5-3.89v7.48l6.88 18.48a9.45 9.45 0 0 1-.7 8.19c-1 1.51-2 2.27-3.19 2.32s-3.75.03-6.86.03zM25.14 42h20.67c.69 0 1.38-.59 2.1-1.69a8.1 8.1 0 0 0 .59-7l-7-18.83V9.52L38.33 12h-6.9l-4.24-1.64.66 4.56V15c0 .67-2.12 5.14-5.69 12.25C17.25 37 24 41.33 25.14 42z" class="cls-2"/><path d="M47.2 39.07c-.12-.46-.21-.91-.29-1.35a4.28 4.28 0 0 0-.85-2.3c-.75-.71-1.51-1.4-2.25-2.09-3.34-3.06-6.5-5.95-8.81-10a4 4 0 0 1-.53-3.27A7.1 7.1 0 0 1 38.11 16l.41-.2.44.05a45.33 45.33 0 0 1 8.57 2.42l-1.14 2.86a47.07 47.07 0 0 0-7.29-2.15 3.76 3.76 0 0 0-1.65 1.91.91.91 0 0 0 .14.81l.06.11c2.08 3.65 5.07 6.39 8.24 9.29.76.7 1.52 1.4 2.29 2.13a6.8 6.8 0 0 1 1.75 3.94c.07.38.15.77.25 1.17zm-25.8 2.86c0-.19-.08-.39-.13-.59-.37-1.73-.88-4.09.65-6 2.78-4 6.52-6.75 10.14-9.46l2.11-1.6 2.35 3.06c-.71.55-1.43 1.09-2.15 1.63-3.55 2.65-6.9 5.16-9.33 8.65l-.11.13c-.38.46-.11 1.73.12 2.76 0 .22.09.44.13.65z" class="cls-3"/><path d="M49.23 37.06a6.21 6.21 0 0 1-.54 1.57.54.54 0 0 0 .15.75.6.6 0 0 0 .81-.22 9.68 9.68 0 0 0 .7-2.11c.06-.27-.27-.54-.59-.54s-.48.28-.53.55z" class="cls-2"/><path d="M48.09 39.39a.44.44 0 0 0 .56-.26.43.43 0 0 0-.26-.55.39.39 0 0 0-.3 0 .42.42 0 0 0-.55.25.44.44 0 0 0 .25.56.51.51 0 0 0 .3 0z" class="cls-3"/><path d="M48.58 39a1.24 1.24 0 0 0 .05-.43.43.43 0 0 0-.86 0v.16c0 .27 0 .49.32.54s.49-.1.49-.27z" class="cls-3"/><path d="M47.82 39.22l.17.6h.1a.26.26 0 0 0 .11-.21l.22-.38c0-.06-.06-.11-.06-.06s-.27.27-.32.44h.11v-.44s-.11-.1-.11 0a.76.76 0 0 1 0 .27h.1c.06-.05.06-.1 0-.21s-.05-.06-.1 0-.06 0 0 .11a.06.06 0 0 0 0-.11v.16c0 .06.1.11.1 0a.36.36 0 0 0 .06-.27H48v.38c0 .06.05.11.11.06s.11-.38.21-.38v-.11c0 .11-.16.49-.27.54h.06l-.11-.49c-.06-.11-.17-.06-.11 0zm.71-.64a.27.27 0 0 1-.06.16c0 .11.11.16.11.11a.36.36 0 0 0 .05-.22c.06-.11-.05-.11-.1-.05z" class="cls-3"/><path d="M48.58 38.85c0 .1-.11.27-.11.37l.11-.27a.64.64 0 0 0 .21.81.6.6 0 0 0 .76-.21 1.36 1.36 0 0 0 .11-.43v.27a.45.45 0 0 0 .1-.27.56.56 0 1 0-1.08-.33z" class="cls-2"/><path d="M49 40a.59.59 0 0 0 .39-.74.45.45 0 1 0-.39.74z" class="cls-2"/><path d="M49 40a.59.59 0 0 0 .39-.74.45.45 0 1 0-.39.74z" class="cls-2"/><path d="M49 40a.54.54 0 1 0-.54-.54.54.54 0 0 0 .54.54zm.07-4.94a10.09 10.09 0 0 1 .21 1.73.6.6 0 0 0 .39.75.61.61 0 0 0 .75-.39.73.73 0 0 0 0-.36 13.54 13.54 0 0 0-.27-2 .56.56 0 1 0-1.08.27z" class="cls-2"/><path d="M49.55 35.06a.57.57 0 1 0-.55-.56.56.56 0 0 0 .55.56z" class="cls-2"/><path d="M49.55 35.17a.58.58 0 0 0 .39-.74.57.57 0 0 0-.39-.39.59.59 0 0 0-.35 1.13.53.53 0 0 0 .35 0zM21.13 39.6a15.41 15.41 0 0 0 2.54 2.81c.54.43 1.35-.32.81-.81A13.93 13.93 0 0 1 22.1 39c-.38-.59-1.35 0-.97.6z" class="cls-2"/><path d="M21.89 41.06a3.89 3.89 0 0 0 .81.81.54.54 0 0 0 .74-.19.59.59 0 0 0-.16-.76 4 4 0 0 1-.65-.65.55.55 0 0 0-.8.76z" class="cls-2"/><path d="M47.39 39.06a4.43 4.43 0 0 1 .27.87c.11.27.65 0 .49-.33a6.59 6.59 0 0 0-.27-.86c-.16-.27-.65 0-.49.32z" class="cls-3"/><path d="M48.15 39.82l-.16.27a.59.59 0 0 0 1 .59l.16-.32c.29-.65-.68-1.19-1-.54z" class="cls-2"/><path d="M47.66 40a.23.23 0 0 0 .06.16c0 .11.16.11.21 0s.06 0 .11-.11a.17.17 0 0 0-.17-.15.19.19 0 0 0-.1 0 .12.12 0 0 0-.05.1H48a.11.11 0 0 1-.06-.1.16.16 0 0 0-.3-.12.17.17 0 0 0 .02.22z" class="cls-3"/><path d="M24.16 41.17c-.17 0-.22-.11-.38-.16l-.38-.27c-.59-.38-1.19.59-.54 1a3.46 3.46 0 0 0 1 .59.59.59 0 0 0 .7-.43.64.64 0 0 0-.4-.73zm-3.25-1.95a1 1 0 0 1 .11.38.6.6 0 0 0 .7.38.49.49 0 0 0 .43-.54.3.3 0 0 0 0-.16 2.51 2.51 0 0 0-.21-.6.55.55 0 0 0-.73-.23.6.6 0 0 0-.3.77z" class="cls-2"/></g><path d="M16.13 34.2l33.8.31c1.67 0 2.78 1.47 2.11 2.76L46.42 48.1a2.37 2.37 0 0 1-2.13 1.18h-21.1a2.32 2.32 0 0 1-2.19-1.4L16.2 34.4a1.69 1.69 0 0 0-.2-.4l-.43-.67c-.41-.63-3.52-3.75-3.52-3.75H5.91" class="cls-4"/><path d="M44.29 51.51h-21.1a4.53 4.53 0 0 1-4.32-2.89L14.1 35.14l-.39-.58c-.22-.3-1.41-1.55-2.58-2.74H5.91a2.23 2.23 0 0 1 0-4.45H13l.65.66a53.44 53.44 0 0 1 3.71 4l32.64.25a4.66 4.66 0 0 1 3.94 2.16 3.92 3.92 0 0 1 .06 3.85l-5.61 10.84a4.62 4.62 0 0 1-4.1 2.38zM23 47a.65.65 0 0 0 .17 0h21.1a.43.43 0 0 0 .23 0l5.32-10.28-30.54-.28zm27.11-10.22z" class="cls-4"/><circle cx="43.01" cy="54.57" r="3.4" class="cls-4"/><path d="M43 59.9a5.33 5.33 0 1 1 5.33-5.33A5.33 5.33 0 0 1 43 59.9zm0-6.8a1.47 1.47 0 1 0 1.47 1.47A1.47 1.47 0 0 0 43 53.1z" class="cls-4"/><circle cx="25.98" cy="54.57" r="3.4" class="cls-4"/><path d="M26 59.9a5.33 5.33 0 1 1 5.33-5.33A5.33 5.33 0 0 1 26 59.9zm0-6.8a1.47 1.47 0 1 0 1.47 1.47A1.47 1.47 0 0 0 26 53.1z" class="cls-4"/></symbol><symbol id="instagram" viewBox="0 0 64 64"><defs><style>.cls-1{fill:#64c7c7}</style></defs><path d="M39.19 58.42H25.53A19.28 19.28 0 0 1 6.32 39.2V24A19.26 19.26 0 0 1 25.53 4.74h13.66A19.28 19.28 0 0 1 58.41 24v15.2a19.29 19.29 0 0 1-19.22 19.22zm4.07-4.05A11.23 11.23 0 0 0 54.4 43.19V19.93A11.23 11.23 0 0 0 43.26 8.75H21.49A11 11 0 0 0 13.63 12a11.14 11.14 0 0 0-3.29 7.89v23.3a11.23 11.23 0 0 0 11.15 11.18z" class="cls-1"/><path d="M46.78 31.37A14.34 14.34 0 1 1 32.44 17a14.34 14.34 0 0 1 14.34 14.37zM32.38 22a9.41 9.41 0 1 0 9.39 9.41A9.4 9.4 0 0 0 32.38 22z" class="cls-1"/></symbol><symbol id="next" viewBox="0 0 64 64"><defs><style>.cls-1,.cls-2{fill:none;stroke:#231f20;stroke-miterlimit:10}.cls-1{stroke-width:5.14px}.cls-2{stroke-width:5.56px}</style></defs><path d="M4.5 32.15h37.98" class="cls-1"/><path d="M42.48 19.97l13.85 13.85-13.85 11.94" class="cls-2"/></symbol><symbol id="twitter" viewBox="0 0 64 64"><defs><style>.cls-1{fill:#64c7c7}</style></defs><g id="twitter"><g id="layer1"><path id="path3611" d="M21.46 55.43c21.87 0 33.82-18.11 33.82-33.81v-1.54a24.3 24.3 0 0 0 5.93-6.16 23.36 23.36 0 0 1-6.82 1.87 12 12 0 0 0 5.22-6.57A23.73 23.73 0 0 1 52 12.1a11.88 11.88 0 0 0-20.54 8.12 11.34 11.34 0 0 0 .31 2.7A33.72 33.72 0 0 1 7.32 10.5a11.73 11.73 0 0 0-1.62 6 11.89 11.89 0 0 0 5.3 9.86 11.91 11.91 0 0 1-5.38-1.48V25a11.89 11.89 0 0 0 9.54 11.64 11.89 11.89 0 0 1-3.13.43 11.63 11.63 0 0 1-2.23-.22 11.88 11.88 0 0 0 11.09 8.26 23.81 23.81 0 0 1-14.76 5.13 26.87 26.87 0 0 1-2.84-.15 33.36 33.36 0 0 0 18.17 5.34" class="cls-1"/></g></g></symbol><symbol id="cancel" viewBox="0 0 64 64"><defs><style>.cls-1{fill:none;stroke:#231f20;stroke-miterlimit:10;stroke-width:6.45px}</style></defs><path d="M16.75 14.34l35.9 37.05m-35.14.71l34.38-38.46" class="cls-1"/></symbol><symbol id="facebook" viewBox="0 0 64 64"><defs><style>.cls-1{fill:#64c7c7}</style></defs><path d="M33.66 63.54V39h-8c-.35 0-.35 0-.35-.34v-8.93c0-.27.08-.35.35-.33h8v-7.71A13.24 13.24 0 0 1 35 16a10.31 10.31 0 0 1 5.54-5.25 12.84 12.84 0 0 1 5.25-1c2.07 0 4.14.12 6.21.19.39 0 .78.08 1.17.1.21 0 .29.1.29.31v8.05c0 .25-.08.33-.33.33H48.4a10.87 10.87 0 0 0-2.13.25 3 3 0 0 0-2.42 2.52 7.61 7.61 0 0 0-.17 1.64v6a1.94 1.94 0 0 0 0 .22h9.07c.39 0 .39 0 .35.37-.22 1.58-.43 3.17-.62 4.74-.18 1.32-.33 2.65-.51 4-.05.5 0 .5-.56.5h-7.75v24.55c-3.34.02-6.66.02-10 .02z" class="cls-1"/></symbol><symbol id="cart" viewBox="0 0 64 64"><defs><style>.cls-1{fill:#231f20}.cls-2{fill:#fff}.cls-3{fill:#64c7c7}.cls-4{fill:#f8f8f8}</style></defs><g id="Layer_2"><path d="M25 42.63S16 38 21.56 26.9s5.62-12 5.62-12l-.81-5.62 5.3 2.05h6.43l4.1-3.19v6.27L49.12 33a8.78 8.78 0 0 1-.65 7.62 3.7 3.7 0 0 1-2.65 2c-3.08.06-20.82.01-20.82.01z" class="cls-1"/><path d="M39 43.32H24.8l-.14-.07c-.1 0-9.49-5.08-3.69-16.62 4.61-9.17 5.4-11.33 5.53-11.73l-.95-6.62 6.24 2.43h6.08l5-3.89v7.48l6.88 18.48a9.45 9.45 0 0 1-.7 8.19c-1 1.51-2 2.27-3.19 2.32s-3.75.03-6.86.03zM25.14 42h20.67c.69 0 1.38-.59 2.1-1.69a8.1 8.1 0 0 0 .59-7l-7-18.83V9.52L38.33 12h-6.9l-4.24-1.64.66 4.56V15c0 .67-2.12 5.14-5.69 12.25C17.25 37 24 41.33 25.14 42z" class="cls-2"/><path d="M47.2 39.07c-.12-.46-.21-.91-.29-1.35a4.28 4.28 0 0 0-.85-2.3c-.75-.71-1.51-1.4-2.25-2.09-3.34-3.06-6.5-5.95-8.81-10a4 4 0 0 1-.53-3.27A7.1 7.1 0 0 1 38.11 16l.41-.2.44.05a45.33 45.33 0 0 1 8.57 2.42l-1.14 2.86a47.07 47.07 0 0 0-7.29-2.15 3.76 3.76 0 0 0-1.65 1.91.91.91 0 0 0 .14.81l.06.11c2.08 3.65 5.07 6.39 8.24 9.29.76.7 1.52 1.4 2.29 2.13a6.8 6.8 0 0 1 1.75 3.94c.07.38.15.77.25 1.17zm-25.8 2.86c0-.19-.08-.39-.13-.59-.37-1.73-.88-4.09.65-6 2.78-4 6.52-6.75 10.14-9.46l2.11-1.6 2.35 3.06c-.71.55-1.43 1.09-2.15 1.63-3.55 2.65-6.9 5.16-9.33 8.65l-.11.13c-.38.46-.11 1.73.12 2.76 0 .22.09.44.13.65z" class="cls-3"/><path d="M49.23 37.06a6.21 6.21 0 0 1-.54 1.57.54.54 0 0 0 .15.75.6.6 0 0 0 .81-.22 9.68 9.68 0 0 0 .7-2.11c.06-.27-.27-.54-.59-.54s-.48.28-.53.55z" class="cls-2"/><path d="M48.09 39.39a.44.44 0 0 0 .56-.26.43.43 0 0 0-.26-.55.39.39 0 0 0-.3 0 .42.42 0 0 0-.55.25.44.44 0 0 0 .25.56.51.51 0 0 0 .3 0z" class="cls-3"/><path d="M48.58 39a1.24 1.24 0 0 0 .05-.43.43.43 0 0 0-.86 0v.16c0 .27 0 .49.32.54s.49-.1.49-.27z" class="cls-3"/><path d="M47.82 39.22l.17.6h.1a.26.26 0 0 0 .11-.21l.22-.38c0-.06-.06-.11-.06-.06s-.27.27-.32.44h.11v-.44s-.11-.1-.11 0a.76.76 0 0 1 0 .27h.1c.06-.05.06-.1 0-.21s-.05-.06-.1 0-.06 0 0 .11a.06.06 0 0 0 0-.11v.16c0 .06.1.11.1 0a.36.36 0 0 0 .06-.27H48v.38c0 .06.05.11.11.06s.11-.38.21-.38v-.11c0 .11-.16.49-.27.54h.06l-.11-.49c-.06-.11-.17-.06-.11 0zm.71-.64a.27.27 0 0 1-.06.16c0 .11.11.16.11.11a.36.36 0 0 0 .05-.22c.06-.11-.05-.11-.1-.05z" class="cls-3"/><path d="M48.58 38.85c0 .1-.11.27-.11.37l.11-.27a.64.64 0 0 0 .21.81.6.6 0 0 0 .76-.21 1.36 1.36 0 0 0 .11-.43v.27a.45.45 0 0 0 .1-.27.56.56 0 1 0-1.08-.33z" class="cls-2"/><path d="M49 40a.59.59 0 0 0 .39-.74.45.45 0 1 0-.39.74z" class="cls-2"/><path d="M49 40a.59.59 0 0 0 .39-.74.45.45 0 1 0-.39.74z" class="cls-2"/><path d="M49 40a.54.54 0 1 0-.54-.54.54.54 0 0 0 .54.54zm.07-4.94a10.09 10.09 0 0 1 .21 1.73.6.6 0 0 0 .39.75.61.61 0 0 0 .75-.39.73.73 0 0 0 0-.36 13.54 13.54 0 0 0-.27-2 .56.56 0 1 0-1.08.27z" class="cls-2"/><path d="M49.55 35.06a.57.57 0 1 0-.55-.56.56.56 0 0 0 .55.56z" class="cls-2"/><path d="M49.55 35.17a.58.58 0 0 0 .39-.74.57.57 0 0 0-.39-.39.59.59 0 0 0-.35 1.13.53.53 0 0 0 .35 0zM21.13 39.6a15.41 15.41 0 0 0 2.54 2.81c.54.43 1.35-.32.81-.81A13.93 13.93 0 0 1 22.1 39c-.38-.59-1.35 0-.97.6z" class="cls-2"/><path d="M21.89 41.06a3.89 3.89 0 0 0 .81.81.54.54 0 0 0 .74-.19.59.59 0 0 0-.16-.76 4 4 0 0 1-.65-.65.55.55 0 0 0-.8.76z" class="cls-2"/><path d="M47.39 39.06a4.43 4.43 0 0 1 .27.87c.11.27.65 0 .49-.33a6.59 6.59 0 0 0-.27-.86c-.16-.27-.65 0-.49.32z" class="cls-3"/><path d="M48.15 39.82l-.16.27a.59.59 0 0 0 1 .59l.16-.32c.29-.65-.68-1.19-1-.54z" class="cls-2"/><path d="M47.66 40a.23.23 0 0 0 .06.16c0 .11.16.11.21 0s.06 0 .11-.11a.17.17 0 0 0-.17-.15.19.19 0 0 0-.1 0 .12.12 0 0 0-.05.1H48a.11.11 0 0 1-.06-.1.16.16 0 0 0-.3-.12.17.17 0 0 0 .02.22z" class="cls-3"/><path d="M24.16 41.17c-.17 0-.22-.11-.38-.16l-.38-.27c-.59-.38-1.19.59-.54 1a3.46 3.46 0 0 0 1 .59.59.59 0 0 0 .7-.43.64.64 0 0 0-.4-.73zm-3.25-1.95a1 1 0 0 1 .11.38.6.6 0 0 0 .7.38.49.49 0 0 0 .43-.54.3.3 0 0 0 0-.16 2.51 2.51 0 0 0-.21-.6.55.55 0 0 0-.73-.23.6.6 0 0 0-.3.77z" class="cls-2"/></g><path d="M16.13 34.2l33.8.31c1.67 0 2.78 1.47 2.11 2.76L46.42 48.1a2.37 2.37 0 0 1-2.13 1.18h-21.1a2.32 2.32 0 0 1-2.19-1.4L16.2 34.4a1.69 1.69 0 0 0-.2-.4l-.43-.67c-.41-.63-3.52-3.75-3.52-3.75H5.91" class="cls-4"/><path d="M44.29 51.51h-21.1a4.53 4.53 0 0 1-4.32-2.89L14.1 35.14l-.39-.58c-.22-.3-1.41-1.55-2.58-2.74H5.91a2.23 2.23 0 0 1 0-4.45H13l.65.66a53.44 53.44 0 0 1 3.71 4l32.64.25a4.66 4.66 0 0 1 3.94 2.16 3.92 3.92 0 0 1 .06 3.85l-5.61 10.84a4.62 4.62 0 0 1-4.1 2.38zM23 47a.65.65 0 0 0 .17 0h21.1a.43.43 0 0 0 .23 0l5.32-10.28-30.54-.28zm27.11-10.22z" class="cls-4"/><circle cx="43.01" cy="54.57" r="3.4" class="cls-4"/><path d="M43 59.9a5.33 5.33 0 1 1 5.33-5.33A5.33 5.33 0 0 1 43 59.9zm0-6.8a1.47 1.47 0 1 0 1.47 1.47A1.47 1.47 0 0 0 43 53.1z" class="cls-4"/><circle cx="25.98" cy="54.57" r="3.4" class="cls-4"/><path d="M26 59.9a5.33 5.33 0 1 1 5.33-5.33A5.33 5.33 0 0 1 26 59.9zm0-6.8a1.47 1.47 0 1 0 1.47 1.47A1.47 1.47 0 0 0 26 53.1z" class="cls-4"/></symbol><symbol id="instagram" viewBox="0 0 64 64"><defs><style>.cls-1{fill:#64c7c7}</style></defs><path d="M39.19 58.42H25.53A19.28 19.28 0 0 1 6.32 39.2V24A19.26 19.26 0 0 1 25.53 4.74h13.66A19.28 19.28 0 0 1 58.41 24v15.2a19.29 19.29 0 0 1-19.22 19.22zm4.07-4.05A11.23 11.23 0 0 0 54.4 43.19V19.93A11.23 11.23 0 0 0 43.26 8.75H21.49A11 11 0 0 0 13.63 12a11.14 11.14 0 0 0-3.29 7.89v23.3a11.23 11.23 0 0 0 11.15 11.18z" class="cls-1"/><path d="M46.78 31.37A14.34 14.34 0 1 1 32.44 17a14.34 14.34 0 0 1 14.34 14.37zM32.38 22a9.41 9.41 0 1 0 9.39 9.41A9.4 9.4 0 0 0 32.38 22z" class="cls-1"/></symbol><symbol id="next" viewBox="0 0 64 64"><defs><style>.cls-1,.cls-2{fill:none;stroke:#231f20;stroke-miterlimit:10}.cls-1{stroke-width:5.14px}.cls-2{stroke-width:5.56px}</style></defs><path d="M4.5 32.15h37.98" class="cls-1"/><path d="M42.48 19.97l13.85 13.85-13.85 11.94" class="cls-2"/></symbol><symbol id="twitter" viewBox="0 0 64 64"><defs><style>.cls-1{fill:#64c7c7}</style></defs><g id="twitter"><g id="layer1"><path id="path3611" d="M21.46 55.43c21.87 0 33.82-18.11 33.82-33.81v-1.54a24.3 24.3 0 0 0 5.93-6.16 23.36 23.36 0 0 1-6.82 1.87 12 12 0 0 0 5.22-6.57A23.73 23.73 0 0 1 52 12.1a11.88 11.88 0 0 0-20.54 8.12 11.34 11.34 0 0 0 .31 2.7A33.72 33.72 0 0 1 7.32 10.5a11.73 11.73 0 0 0-1.62 6 11.89 11.89 0 0 0 5.3 9.86 11.91 11.91 0 0 1-5.38-1.48V25a11.89 11.89 0 0 0 9.54 11.64 11.89 11.89 0 0 1-3.13.43 11.63 11.63 0 0 1-2.23-.22 11.88 11.88 0 0 0 11.09 8.26 23.81 23.81 0 0 1-14.76 5.13 26.87 26.87 0 0 1-2.84-.15 33.36 33.36 0 0 0 18.17 5.34" class="cls-1"/></g></g></symbol></svg>