<svg xmlns="http://www.w3.org/2000/svg"><symbol id="cart" viewBox="0 0 64 64"><path fill="#231f20" stroke="#fff" stroke-miterlimit="10" stroke-width="1.33" d="M25 42.6s-9-4.6-3.4-15.7 5.6-12 5.6-12l-.8-5.6 5.3 2h6.4l4.1-3.1v6.2L49.1 33a8.8 8.8 0 0 1-.6 7.6 3.5 3.5 0 0 1-2.7 2c-3.1.1-20.8 0-20.8 0z"/><path fill="none" stroke="#64c7c7" stroke-miterlimit="10" stroke-width="3.08" d="M48.7 38.7c-.4-1.7-.4-3.3-1.6-4.4-4-3.8-8.1-7-10.8-11.8-1.3-2 .7-4.2 2.5-5.2a48 48 0 0 1 8.2 2.4"/><path fill="none" stroke="#64c7c7" stroke-miterlimit="10" stroke-width="3.86" d="M35.3 25.8c-4.2 3.3-8.7 6.2-11.8 10.7-1.2 1.4-.5 3.4-.2 5"/><path fill="#fff" d="M49.2 37.1a8.8 8.8 0 0 1-.5 1.5.6.6 0 0 0 .1.8h.1a.7.7 0 0 0 .8-.2 17.2 17.2 0 0 0 .7-2.1.6.6 0 0 0-.6-.6c-.4 0-.5.3-.6.6z"/><path fill="#64c7c7" d="M48.1 39.4a.3.3 0 0 0 .5-.3.4.4 0 0 0-.2-.5.2.2 0 0 0-.3 0 .5.5 0 0 0-.6.2.6.6 0 0 0 .3.6z"/><path fill="#64c7c7" d="M48.6 39v-.5a.4.4 0 0 0-.8 0v.2c0 .3 0 .5.3.5s.5 0 .5-.2zm-.8.2l.2.6c0 .1 0 .1.1.1v-.2l.2-.4-.4.5h.1v-.5s-.1-.1-.1 0v.3h.1v-.2c-.1 0-.1 0 0 .1.1 0 0-.1 0-.1v.2s.1.1.1 0 .1-.2 0-.3H48v.4a.1.1 0 0 0 .1.1c.1-.1.2-.4.3-.4-.1.1-.2.5-.3.5v-.6c-.1-.1-.2 0-.1 0z"/><path fill="#64c7c7" d="M48.5 38.6c0 .1.1.2.1.1v-.2c.1 0 0 0-.1.1z"/><path fill="#fff" d="M48.6 38.8c0 .2-.1.3-.1.4V39h-.1a.8.8 0 0 0 .2.8.7.7 0 0 0 .8-.3c.1-.1.1-.2.1-.4v.3a.4.4 0 0 0 .1-.3.6.6 0 1 0-1.1-.3z"/><path fill="#fff" d="M49 40a.6.6 0 0 0 .3-.8c0-.2-.2-.3-.3-.4a.6.6 0 0 0-.4.8c0 .2.2.3.4.4z"/><path fill="#fff" d="M49 40a.6.6 0 0 0 .3-.8c0-.2-.2-.3-.3-.4a.6.6 0 0 0-.4.8c0 .2.2.3.4.4z"/><path fill="#fff" d="M49 40a.6.6 0 0 0 .5-.6.5.5 0 0 0-.5-.5.6.6 0 0 0-.6.5.6.6 0 0 0 .6.6zm.1-4.9a8.8 8.8 0 0 1 .2 1.7.6.6 0 0 0 .4.7.5.5 0 0 0 .7-.4.2.2 0 0 0 0-.3 6.9 6.9 0 0 0-.3-2c-.1-.8-1.2-.4-1 .3z"/><path fill="#fff" d="M49.6 35.1a.6.6 0 0 0 0-1.2.6.6 0 1 0 0 1.2z"/><path fill="#fff" d="M49.6 35.2a.6.6 0 0 0 .3-.8c0-.2-.2-.3-.3-.4a.6.6 0 0 0-.8.4.7.7 0 0 0 .4.8zm-28.5 4.4a17.3 17.3 0 0 0 2.6 2.8c.5.4 1.3-.3.8-.8a14.8 14.8 0 0 1-2.4-2.6c-.4-.6-1.3 0-1 .6z"/><path fill="#fff" d="M21.9 41.1l.8.8a.6.6 0 0 0 .7-.2h.1a.8.8 0 0 0-.2-.8l-.7-.6a.4.4 0 0 0-.7 0 .5.5 0 0 0-.1.7c.1 0 .1 0 .1.1z"/><path fill="#64c7c7" d="M47.4 39.1c.2.2.2.6.3.8s.6.1.4-.3a2.9 2.9 0 0 0-.2-.9.3.3 0 0 0-.5.4z"/><path fill="#fff" d="M48.1 39.8v.3a.6.6 0 0 0 .4.7.7.7 0 0 0 .6-.1v-.3a.6.6 0 0 0-1-.6z"/><path fill="#64c7c7" d="M47.7 40c0 .2.2.2.2 0s.1 0 .1-.1 0-.1-.1-.1h.1a.1.1 0 0 1-.1-.1c.1-.1 0-.2-.1-.2h-.2c0 .4 0 .4.1.5z"/><path fill="#fff" d="M24.2 41.2a.5.5 0 0 1-.4-.2l-.4-.3a.6.6 0 0 0-.5 1 2.4 2.4 0 0 0 .9.6c.3.1.7-.1.7-.4a.6.6 0 0 0-.3-.7zm-3.3-2a.6.6 0 0 1 .1.4.6.6 0 0 0 .7.4.6.6 0 0 0 .5-.6.1.1 0 0 1-.1-.1 1.4 1.4 0 0 0-.2-.6c-.2-.3-.5-.4-.7-.2h-.1a.6.6 0 0 0-.2.7z"/><path fill="#f8f8f8" stroke="#f8f8f8" stroke-linecap="round" stroke-miterlimit="10" stroke-width="4.44" d="M16.1 34.2l33.8.3c1.7 0 2.8 1.5 2.1 2.8l-5.6 10.8a2.3 2.3 0 0 1-2.1 1.2H23.2a2.4 2.4 0 0 1-2.2-1.4l-4.8-13.5a.8.8 0 0 0-.2-.4l-.4-.6a48.8 48.8 0 0 0-3.5-3.8H5.9"/><circle cx="43" cy="54.6" r="3.4" fill="#f8f8f8" stroke="#f8f8f8" stroke-linecap="round" stroke-miterlimit="10" stroke-width="3.86"/><circle cx="26" cy="54.6" r="3.4" fill="#f8f8f8" stroke="#f8f8f8" stroke-linecap="round" stroke-miterlimit="10" stroke-width="3.86"/></symbol><symbol id="cancel" viewBox="0 0 64 64"><path fill="none" stroke="#231f20" stroke-miterlimit="10" stroke-width="6.45" d="M16.8 14.3l35.8 37.1m-35.1.7l34.4-38.5"/></symbol><symbol id="next" viewBox="0 0 64 64"><path fill="none" stroke="#231f20" stroke-miterlimit="10" stroke-width="5.14" d="M4.5 32.2h38"/><path fill="none" stroke="#231f20" stroke-miterlimit="10" stroke-width="5.56" d="M42.5 20l13.8 13.8-13.8 12"/></symbol></svg>