<svg xmlns="http://www.w3.org/2000/svg"><symbol id="cart" viewBox="0 0 50.41 52.85"><defs><style>.cls-1{fill:#fff}.cls-2{fill:#010102}.cls-3{fill:#64c7c7}.cls-4{fill:#f8f8f8}</style></defs><g id="cart"><path fill="#fff" d="M39.18 7.32V0l-4.9 3.81h-7.14L21 1.39l.92 6.53c-7.69 15.85-8.07 18.7-8.07 19.08l.5 3.13 29.17.09 3.12-2.76zM16.05 28.18L15.86 27c.11-.55 1-4.05 8-18.49l.14-.27-.52-3.75 3.28 1.27 8.2.06 2.22-1.73v3.59l7.11 19.23-1.53 1.35z" class="cls-1"/><path fill="#001" d="M44.29 26.91l-1.53 1.35-26.71-.08-.19-1.18c.11-.55 1-4.05 8-18.49l.14-.27-.52-3.75 3.28 1.27 8.2.06 2.22-1.73v3.59z" class="cls-2"/><path fill="#62c7c7" d="M30.25 18.18l2.36 3.06-7.82 6.17-5.17-.41s7.3-7.27 10.63-8.82zM42.48 15l1.14-2.86S35 9.45 34.6 9.65s-4.1 2.07-4.18 4.66 2.76 6.69 7.92 11.81l3.17 1.78 2.09-1.45s-10-9.55-9.92-10.9.39-3 2.18-2.59S42.48 15 42.48 15z" class="cls-3"/><path fill="#fff" d="M49.94 31.56c-1.65 5.22-5.73 10.21-7.37 12.09 1 1.1 3 4 .51 7.25-3.24 4.2-7.92.31-7.92.31s-3-2.4-.63-6.78h-8.25a5.12 5.12 0 0 1-.1 6.49c-3.25 4.2-7.92.31-7.92.31s-3.12-2.48-.52-7A5.66 5.66 0 0 1 14.1 40c-1.21-4.32-4.29-12.5-4.29-12.5l-2.58-2.75S1 25.49.37 24s-.67-3.63 1.24-3.67 7.47 0 7.47 0l4.36 4.62 33 .32s5.56-.34 3.5 6.29z" class="cls-4"/></g></symbol><symbol id="next" viewBox="0 0 19.85 29.94"><defs><style>.cls-1{fill:#f8f8f8}</style></defs><path id="next" fill="#fff" d="M0 4.02L3.76 0l16.09 16.06L3.73 29.94.09 25.7 11.7 15.58 0 4.02z" class="cls-1"/></symbol><symbol id="twitter" viewBox="0 0 57.87 47.09"><defs><style>.cls-1{fill:#fff}</style></defs><g id="twitter"><g id="twitter-2"><g id="layer1"><path id="path3611" fill="#62c7c7" d="M18.17 47.09C40 47.09 52 29 52 13.27v-1.53a24 24 0 0 0 5.93-6.16 23.67 23.67 0 0 1-6.82 1.86A12 12 0 0 0 56.28.87a23.5 23.5 0 0 1-7.54 2.88 11.88 11.88 0 0 0-20.54 8.12 10.8 10.8 0 0 0 .31 2.7A33.73 33.73 0 0 1 4 2.16a11.71 11.71 0 0 0-1.61 6A11.88 11.88 0 0 0 7.7 18a11.94 11.94 0 0 1-5.39-1.47v.15a11.87 11.87 0 0 0 9.54 11.64 11.47 11.47 0 0 1-3.12.43 12.69 12.69 0 0 1-2.24-.21 11.93 11.93 0 0 0 11.1 8.26 23.87 23.87 0 0 1-14.75 5.1A26.73 26.73 0 0 1 0 41.74a33.37 33.37 0 0 0 18.17 5.35" class="cls-1"/></g></g></g></symbol><symbol id="cancel" viewBox="0 0 40.38 42.88"><defs><style>.cls-1{fill:#fff}</style></defs><g id="cancel"><path fill="#fff" d="M0 4.88L4.63.63 40.38 37.5 36 42.25 0 4.88z" class="cls-1"/><path fill="#fff" d="M35.13 0l4.5 4.38-34 38.5-4.88-4.5L35.13 0z" class="cls-1"/></g></symbol><symbol id="facebook" viewBox="0 0 28.06 53.81"><defs><style>.cls-1{fill:#fff}</style></defs><path id="facebook" fill="#62c7c7" d="M8.29 53.81V29.27h-8c-.35 0-.35 0-.35-.35V20c0-.27.08-.35.35-.33h8v-7.71a13.12 13.12 0 0 1 1.32-5.72A10.35 10.35 0 0 1 15.15 1a12.79 12.79 0 0 1 5.24-1c2.08 0 4.15.12 6.22.2.39 0 .78.07 1.16.09.22 0 .29.1.29.31v8.06c0 .25-.07.33-.33.33C26.17 9 24.58 9 23 9a11.69 11.69 0 0 0-2.13.25 3 3 0 0 0-2.42 2.52 7.65 7.65 0 0 0-.18 1.65v6a.9.9 0 0 0 0 .21h9.07c.38 0 .38 0 .35.37-.22 1.59-.43 3.18-.62 4.74-.18 1.32-.33 2.66-.51 4-.06.51 0 .51-.56.51h-7.72v24.54c-3.28.02-6.66.02-9.99.02z" class="cls-1"/></symbol><symbol id="instagram" viewBox="0 0 52.09 53.68"><defs><style>.cls-1{fill:#fff}</style></defs><path fill="#62c7c7" d="M32.87 53.68H19.21A19.28 19.28 0 0 1 0 34.46V19.21A19.26 19.26 0 0 1 19.21 0h13.66a19.28 19.28 0 0 1 19.22 19.21v15.25a19.29 19.29 0 0 1-19.22 19.22zm4.07-4a11.23 11.23 0 0 0 11.14-11.23V15.19A11.22 11.22 0 0 0 36.94 4H15.17a11 11 0 0 0-7.86 3.29A11.2 11.2 0 0 0 4 15.19v23.26a11.23 11.23 0 0 0 11.17 11.18z" class="cls-1"/><path fill="#62c7c7" d="M40.46 26.62a14.34 14.34 0 1 1-14.34-14.37 14.34 14.34 0 0 1 14.34 14.37zm-14.4-9.4a9.41 9.41 0 1 0 9.39 9.4 9.4 9.4 0 0 0-9.39-9.4z" class="cls-1"/></symbol></svg>