<svg xmlns="http://www.w3.org/2000/svg" width="0.2in" height="0.2in" viewBox="0 0 16 16"><title>Artboard 5</title><g id="Layer_2" data-name="Layer 2"><path d="M3.7,16S-.5,13.8,2.1,8.7,4.7,3.1,4.7,3.1L4.4.5l2.4,1h3L11.7,0V2.9l3.2,8.6a4.2,4.2,0,0,1-.3,3.5,1.5,1.5,0,0,1-1.3,1Z" fill="#231f20" stroke="#fff" stroke-miterlimit="10" stroke-width="0.73"/><path d="M14.7,14.1c-.2-.7-.2-1.5-.7-2S10.2,8.9,8.9,6.7s.4-2,1.2-2.4a26.6,26.6,0,0,1,3.8,1" fill="none" stroke="#62c7c7" stroke-miterlimit="10" stroke-width="1.25"/><path d="M8.5,8.2a23.7,23.7,0,0,0-5.5,5c-.5.6-.2,1.5-.1,2.3" fill="none" stroke="#62c7c7" stroke-miterlimit="10" stroke-width="0.94"/><path d="M14.9,13.3a1.9,1.9,0,0,1-.2.8c-.2.3.3.6.4.3a3.2,3.2,0,0,0,.3-.9.3.3,0,1,0-.5-.2Z" fill="#fff"/><path d="M14.4,14.5a.2.2,0,1,0,0-.4c-.2,0-.2.4,0,.4Z" fill="#62c7c7"/><path d="M14.6,14.2h.1a.2.2,0,1,0-.4,0h-.1a.2.2,0,1,0,.4,0Z" fill="#62c7c7"/><path d="M14.3,14.4a.4.4,0,0,0,.1.3h0a.4.4,0,0,0,.1-.3h-.1c-.1.1,0,.1,0,.1h0c.1-.2,0,0-.1-.2Z" fill="#62c7c7"/><path d="M14.6,14.1h0Z" fill="#62c7c7"/><path d="M14.6,14.2c0,.1-.1.3,0,.1s.3.6.5.3h0a.3.3,0,1,0-.5-.2Z" fill="#fff"/><path d="M14.8,14.8c.3,0,.3-.6,0-.6s-.3.6,0,.6Z" fill="#fff"/><path d="M14.8,14.8c.3,0,.3-.6,0-.6s-.3.6,0,.6Z" fill="#fff"/><path d="M14.8,14.8c.3,0,.3-.6,0-.6s-.3.6,0,.6Z" fill="#fff"/><path d="M14.9,12.5v.8c.1.3.6.3.6,0s-.1-.6-.1-1-.6-.1-.5.2Z" fill="#fff"/><path d="M15.1,12.5a.3.3,0,0,0,0-.5c-.4,0-.4.5,0,.5Z" fill="#fff"/><path d="M15.1,12.5a.3.3,0,0,0,0-.5c-.4,0-.4.5,0,.5Z" fill="#fff"/><path d="M1.9,14.6a7.4,7.4,0,0,0,1.2,1.3c.2.2.6-.2.4-.4a6.3,6.3,0,0,1-1.1-1.2c-.2-.3-.7,0-.5.3Z" fill="#fff"/><path d="M2.3,15.3l.3.3c.2.2.6-.2.4-.4l-.4-.3c-.2-.3-.6.1-.3.4Z" fill="#fff"/><path d="M14.1,14.3a.6.6,0,0,0,.1.4c0,.2.3.1.2-.1a.8.8,0,0,0-.1-.4c0-.1-.3-.1-.2.1Z" fill="#62c7c7"/><path d="M14.4,14.7h-.1c-.1.3.3.6.5.3v-.2a.3.3,0,0,0-.5-.2Z" fill="#fff"/><path d="M14.2,14.8h.2c0-.1-.1-.2-.1-.1h0c0-.1-.1,0-.1.1Z" fill="#62c7c7"/><path d="M3.3,15.3,3,15.1c-.3-.2-.6.3-.3.5l.5.2c.3.1.4-.4.1-.5Z" fill="#fff"/><path d="M1.8,14.4v.2a.3.3,0,1,0,.5-.2c-.1-.1-.1-.1-.1-.2s-.6-.1-.5.2Z" fill="#fff"/></g></svg>