<svg xmlns="http://www.w3.org/2000/svg" width="38.4" height="38.4" viewBox="0 0 31.7 32"><g id="Layer_2"><path fill="#231f20" stroke="#fff" stroke-miterlimit="10" stroke-width="1.46" d="M6.9 32s-8.4-4.3-3.2-14.6S8.9 6.2 8.9 6.2L8.2 1l4.9 2H19l3.8-3v5.8L29.2 23a8 8 0 0 1-.6 7.1 3.4 3.4 0 0 1-2.4 1.9z"/><path fill="none" stroke="#62c7c7" stroke-miterlimit="10" stroke-width="2.51" d="M28.8 28.3c-.4-1.6-.4-3-1.4-4.1-3.8-3.5-7.5-6.5-10-10.9-1.3-1.8.6-3.9 2.3-4.8a40.2 40.2 0 0 1 7.5 2.2"/><path fill="none" stroke="#62c7c7" stroke-miterlimit="10" stroke-width="1.88" d="M16.5 16.4c-3.9 3-8.1 5.7-11 9.9-1.1 1.3-.5 3.2-.2 4.7"/><path fill="#fff" d="M29.3 26.8a3.4 3.4 0 0 1-.5 1.4c-.2.7.7 1.2.9.6a8 8 0 0 0 .7-2c.1-.6-1-.6-1.1 0z"/><path fill="#62c7c7" d="M28.3 29a.4.4 0 0 0 0-.8.4.4 0 0 0 0 .8z"/><path fill="#62c7c7" d="M28.8 28.4v-.2a.4.4 0 1 0-.8 0v.2c-.1.5.7.5.8 0z"/><path fill="#62c7c7" d="M28 28.8c.1.2.1.4.2.6h.1l.3-.5h-.1c-.2.1-.2.2-.3.4h.1c0-.1.1-.2 0-.3h-.1v.2h.1V29h-.1c0 .1-.1.1 0 .1.1-.1 0-.2 0-.1h.1v-.2h-.1v.3c0 .1.1.1.1 0s.1-.1 0-.1h-.1c0-.2 0-.3-.1-.4s-.1 0-.1 0zm.7-.6v.2s.1.1.1 0 .1 0 .1-.2z"/><path fill="#fff" d="M28.7 28.5s-.2.5 0 .1.6 1.2.9.6.1-.5.1-.3v-.2c0-.1-.8-.9-1-.2z"/><path fill="#fff" d="M29.1 29.5a.5.5 0 1 0 0-1 .5.5 0 1 0 0 1z"/><path fill="#fff" d="M29.1 29.5a.5.5 0 1 0 0-1 .5.5 0 1 0 0 1z"/><path fill="#fff" d="M29.1 29.5a.5.5 0 0 0 0-1 .5.5 0 1 0 0 1zm.1-4.5a7.8 7.8 0 0 1 .2 1.6c0 .6 1.1.6 1 0a11.1 11.1 0 0 0-.2-1.9c-.1-.7-1.2-.4-1 .3z"/><path fill="#fff" d="M29.6 25a.6.6 0 0 0 0-1.1c-.6 0-.6 1.1 0 1.1z"/><path fill="#fff" d="M29.6 25a.5.5 0 1 0 0-1 .5.5 0 0 0 0 1zM2.3 29.2a9.5 9.5 0 0 0 2.4 2.5.5.5 0 1 0 .7-.7 10.2 10.2 0 0 1-2.2-2.4c-.3-.5-1.3 0-.9.6z"/><path fill="#fff" d="M3 30.5a6 6 0 0 0 .8.8c.5.4 1-.5.5-.9l-.6-.6c-.4-.5-1.1.2-.7.7z"/><path fill="#62c7c7" d="M27.6 28.6a2.6 2.6 0 0 1 .3.8.3.3 0 1 0 .5-.2l-.3-.8a.3.3 0 0 0-.5.2z"/><path fill="#fff" d="M28.3 29.3c0 .1-.1.2-.1.3s.5 1.1.9.6.1-.2.1-.3-.6-1.2-.9-.6z"/><path fill="#62c7c7" d="M27.9 29.5c0 .2.2.2.3.1.1-.2-.1-.3-.2-.2h.2v-.2c0-.1-.3-.1-.2.1z"/><path fill="#fff" d="M5.1 30.6c-.2 0-.5-.3-.7-.4s-1.1.6-.5.9l.9.5a.5.5 0 1 0 .3-1zm-3-1.8c.1.1.1.2.1.4s1.2.3 1-.3a1.4 1.4 0 0 0-.2-.6c-.3-.6-1.2-.1-.9.5z"/></g></svg>