<svg xmlns="http://www.w3.org/2000/svg" width="0.2in" height="0.2in" viewBox="0 0 16 16"><title>Artboard 5</title><g id="Layer_2" data-name="Layer 2"><path d="M-1.1,28.2s-5.8-3-2.1-10.2S.4,10.3.4,10.3L-.2,6.7,3.3,8H7.4L10,5.9V10l4.5,12a5.7,5.7,0,0,1-.5,4.9,2.4,2.4,0,0,1-1.7,1.3Z" fill="#231f20" stroke="#fff" stroke-miterlimit="10" stroke-width="1.02"/><path d="M16,26c-.2-1.1-.2-2.1-1-2.8-2.6-2.5-5.2-4.5-6.9-7.6-.9-1.3.4-2.7,1.6-3.3a23.8,23.8,0,0,1,5.2,1.5" fill="none" stroke="#62c7c7" stroke-miterlimit="10" stroke-width="1.74"/></g></svg>