<svg xmlns="http://www.w3.org/2000/svg" width="0.9in" height="0.9in" viewBox="0 0 64 64"><title>Artboard 3</title><g id="Layer_2" data-name="Layer 2"><path d="M15.1,63.8S-1.5,55.2,8.8,34.7,19.2,12.5,19.2,12.5L17.7,2.1l9.8,3.8H39.4L47,0V11.6L59.8,46a16.3,16.3,0,0,1-1.2,14.1c-1.3,2-2.9,3.6-4.9,3.7C48,63.9,15.1,63.8,15.1,63.8Z" fill="#231f20" stroke="#fff" stroke-miterlimit="10" stroke-width="2.92"/><path d="M59,56.5c-.8-3.1-.8-6.1-2.9-8.1-7.5-7.1-15-13-20-21.8-2.5-3.7,1.2-7.9,4.6-9.6,3.7.4,11.6,2.9,15.1,4.3" fill="none" stroke="#62c7c7" stroke-miterlimit="10" stroke-width="5.01"/><path d="M34.3,32.7c-7.8,6-16.2,11.5-22,19.8-2.1,2.5-.9,6.3-.3,9.3" fill="none" stroke="#62c7c7" stroke-miterlimit="10" stroke-width="3.76"/><path d="M60,53.5a11.1,11.1,0,0,1-1,2.9,1,1,0,0,0,.3,1.4,1.1,1.1,0,0,0,1.5-.4,17.9,17.9,0,0,0,1.3-3.9c.1-.5-.5-1-1.1-1s-.9.5-1,1Z" fill="#fff"/><path d="M57.9,57.8a.8.8,0,1,0,0-1.5.8.8,0,1,0,0,1.5Z" fill="#62c7c7"/><path d="M58.8,57a2.5,2.5,0,0,0,.1-.8c0-1-1.5-1-1.6,0v.3c0,.5.1.9.6,1s.9-.1.9-.5Z" fill="#62c7c7"/><path d="M57.4,57.5l.3,1.1c0,.1.1.1.2.1a.5.5,0,0,0,.2-.4l.4-.7c0-.1-.1-.2-.1-.1s-.5.5-.6.8H58v-.8c0-.1-.2-.2-.2,0a1.1,1.1,0,0,1-.1.5h.2c.1-.1.1-.2,0-.4s-.1-.1-.2,0-.1.1,0,.2a.1.1,0,0,0,.1.1h0c.1-.1,0-.2-.1-.2h0v.3c0,.1.2.2.2,0a.7.7,0,0,0,.1-.5h-.2v.7c0,.1.1.2.2.1s.2-.7.4-.7v-.2c-.1.2-.3.9-.5,1h.1l-.3-1.1c-.1-.2-.3-.1-.2,0Z" fill="#62c7c7"/><path d="M58.7,56.3a.4.4,0,0,1-.1.3c0,.2.2.3.2.2a.8.8,0,0,0,.1-.4c.1-.2-.1-.2-.2-.1Z" fill="#62c7c7"/><path d="M58.8,56.8c0,.2-.2.5-.2.7l.2-.5h-.1a1.2,1.2,0,0,0,.4,1.5,1.1,1.1,0,0,0,1.4-.4,2.4,2.4,0,0,0,.2-.8v.5a.8.8,0,0,0,.2-.5,1,1,0,0,0-2-.6Z" fill="#fff"/><path d="M59.5,58.9a1.1,1.1,0,0,0,0-2.1,1.1,1.1,0,0,0,0,2.1Z" fill="#fff"/><path d="M59.5,58.9a1.1,1.1,0,0,0,0-2.1,1.1,1.1,0,0,0,0,2.1Z" fill="#fff"/><path d="M59.5,58.9a1,1,0,0,0,0-2,1,1,0,1,0,0,2Z" fill="#fff"/><path d="M59.7,49.8a17.5,17.5,0,0,1,.4,3.2,1.1,1.1,0,1,0,2.1,0,23.5,23.5,0,0,0-.5-3.7c-.3-1.4-2.3-.8-2,.5Z" fill="#fff"/><path d="M60.6,49.8a1,1,0,1,0,0-2.1,1,1,0,0,0,0,2.1Z" fill="#fff"/><path d="M60.6,50a1.1,1.1,0,0,0,0-2.1,1.1,1.1,0,1,0,0,2.1Z" fill="#fff"/><path d="M8,58.2a29.1,29.1,0,0,0,4.7,5.2c1,.8,2.5-.6,1.5-1.5a25.1,25.1,0,0,1-4.4-4.8c-.7-1.1-2.5,0-1.8,1.1Z" fill="#fff"/><path d="M9.4,60.9a7.1,7.1,0,0,0,1.5,1.5,1,1,0,0,0,1.4-.4,1.1,1.1,0,0,0-.3-1.4,6.8,6.8,0,0,1-1.2-1.2,1,1,0,0,0-1.4,0,1,1,0,0,0,0,1.5Z" fill="#fff"/><path d="M56.6,57.2c.3.4.3,1.1.5,1.6s1.2.1.9-.6a9.8,9.8,0,0,0-.5-1.6c-.3-.5-1.2,0-.9.6Z" fill="#62c7c7"/><path d="M58,58.6l-.3.5a1.1,1.1,0,0,0,1.8,1.1l.3-.6c.6-1.2-1.2-2.2-1.8-1Z" fill="#fff"/><path d="M57.1,58.9a.4.4,0,0,0,.1.3c0,.2.3.2.4,0s.1-.1.2-.2a.3.3,0,0,0-.5-.2.3.3,0,0,0-.1.2h.5a.3.3,0,0,1-.1-.2.3.3,0,1,0-.5.1Z" fill="#62c7c7"/><path d="M13.6,61.1c-.3,0-.4-.2-.7-.3l-.7-.5c-1.1-.7-2.2,1.1-1,1.8A6.7,6.7,0,0,0,13,63.2a1.1,1.1,0,0,0,1.3-.8,1.2,1.2,0,0,0-.7-1.3Z" fill="#fff"/><path d="M7.6,57.5a1.9,1.9,0,0,1,.2.7,1.1,1.1,0,0,0,1.3.7.9.9,0,0,0,.7-1.3,4.9,4.9,0,0,0-.4-1.1A1,1,0,0,0,8,56.1a1.1,1.1,0,0,0-.4,1.4Z" fill="#fff"/></g></svg>