<svg xmlns="http://www.w3.org/2000/svg" width="3.6in" height="3.6in" viewBox="0 0 256 256"><g id="Layer_2"><path fill="#231f20" stroke="#fff" stroke-miterlimit="10" stroke-width="11.54" d="M62.1 251.8S-3.5 218 37.5 137.1s41-87.9 41-87.9l-5.8-41 38.7 15.2h46.8L188.3 0v45.7l50.4 135.8a64.1 64.1 0 0 1-4.8 55.5c-4.9 8.2-11.4 14.6-19.4 14.8-22.3.6-152.4 0-152.4 0z"/><path fill="none" stroke="#62c7c7" stroke-miterlimit="10" stroke-width="19.78" d="M235.6 222.9c-3.2-12.3-3.2-23.8-11.4-32.1-29.7-28-59.3-51.1-79.1-85.7-9.9-14.8 4.9-31.3 18.1-37.9 14.8 1.7 45.9 11.4 59.8 16.9"/><path fill="none" stroke="#62c7c7" stroke-miterlimit="10" stroke-width="14.84" d="M138.2 129.1c-31 23.8-64 45.3-87.1 78.2-8.2 9.9-3.3 24.8-1.2 36.8"/><path fill="#fff" d="M239.4 211.2c-.4 4-2.5 7.6-4 11.2s-.6 4.4 1.5 5.7 4.7.5 5.6-1.5c2.2-5.1 4.5-9.8 5.2-15.4.2-2.2-2.1-4.1-4.1-4.1s-3.9 1.9-4.2 4.1z"/><path fill="#62c7c7" d="M231.3 228.3c4 0 4-6.2 0-6.2s-3.9 6.2 0 6.2z"/><path fill="#62c7c7" d="M234.8 224.8a15.3 15.3 0 0 0 .3-3 3.1 3.1 0 0 0-3.1-3.1 3.1 3.1 0 0 0-3.1 3.1 10.9 10.9 0 0 1-.1 1.8v-.5a2.9 2.9 0 0 0 .3 2.4 3.1 3.1 0 0 0 1.8 1.4 2.9 2.9 0 0 0 2.4-.3 2.8 2.8 0 0 0 1.4-1.8z"/><path fill="#62c7c7" d="M229.1 227c.5 1.4 1 2.9 1.4 4.3s.3.4.6.3a2.9 2.9 0 0 0 1.1-1.8 9.5 9.5 0 0 0 1.2-2.5c.1-.4-.1-.6-.5-.6s-1.9 2.3-2.2 3.4l.8.3a8.6 8.6 0 0 0 0-3.2c0-.5-.6-.4-.8 0s0 1.4-.2 2l.8.3a3.3 3.3 0 0 0-.1-1.7c-.1-.2-.5-.4-.7-.1a1.2 1.2 0 0 0-.3 1 .4.4 0 0 0 .4.3l.4-.2c.2-.4-.5-.9-.7-.4l.3-.2.4.3v-.2h-.7a1.4 1.4 0 0 1 .1 1.1c-.1.6.6.8.8.3s0-1.4.2-2.1h-.8a8.2 8.2 0 0 1 0 2.7c-.1.6.6.8.8.3s.8-2.7 1.7-2.9l-.5-.5a12.4 12.4 0 0 1-1 2c-.3.6-.4 1.6-1 1.8l.6.3a31.2 31.2 0 0 0-1.5-4.3c-.1-.5-.9-.3-.7.2zm5.3-4.6a2.7 2.7 0 0 1-.3 1.2c-.3.4.4.9.7.4a4.3 4.3 0 0 0 .5-1.6c0-.6-.8-.6-.9 0z"/><path fill="#fff" d="M234.8 224.2l-.3.8.4-.9h-.1l.7-.9a5.5 5.5 0 0 0-1.1 1.7 5.2 5.2 0 0 0-.4 2.1v-.9l.4-1h-.1l.7-.8a4.7 4.7 0 0 0-1.2 2.9 4.1 4.1 0 0 0 1.2 3 4.1 4.1 0 0 0 5.8 0 5 5 0 0 0 1.2-2.1 4.4 4.4 0 0 0 .2-1.6v.9l-.4 1h.1l-.7.8a6.1 6.1 0 0 0 1.3-2.2l.3-.8a4.1 4.1 0 1 0-7.9-2.2z"/><path fill="#fff" d="M237.7 232.4c5.3 0 5.3-8.3 0-8.3s-5.3 8.3 0 8.3z"/><path fill="#fff" d="M237.6 232.5c5.3 0 5.3-8.3 0-8.3s-5.4 8.3 0 8.3z"/><path fill="#fff" d="M237.4 232.6c5.3 0 5.3-8.2 0-8.2s-5.4 8.2 0 8.2zm.9-36a77.2 77.2 0 0 1 1.5 12.7c.3 5.2 8.5 5.3 8.3 0a93.4 93.4 0 0 0-1.9-14.9c-1-5.2-9-3-7.9 2.2z"/><path fill="#fff" d="M241.9 196.6c5.3 0 5.3-8.2 0-8.2s-5.3 8.2 0 8.2z"/><path fill="#fff" d="M241.8 197.3c5.3 0 5.3-8.2 0-8.2s-5.3 8.2 0 8.2zM34.1 229.7c5.1 7.9 11.8 14.2 18.8 20.3 3.9 3.5 9.8-2.3 5.8-5.8-6.4-5.7-12.8-11.4-17.4-18.7-2.9-4.4-10-.3-7.2 4.2z"/><path fill="#fff" d="M39.6 240.3c1.9 2.2 3.6 4.4 6.1 6a4.1 4.1 0 1 0 4.1-7.1l-.2-.2-.5-.4-1.3-1.4-2.4-2.7a4 4 0 0 0-5.8 0 4.2 4.2 0 0 0 0 5.8z"/><path fill="#62c7c7" d="M226.1 225.6a7.1 7.1 0 0 1 .9 2.8 15 15 0 0 0 1.1 3.6 2.1 2.1 0 0 0 2.8.7 2.1 2.1 0 0 0 .7-2.8c-.9-2.1-.7-4.4-2-6.4s-5-.1-3.5 2.1z"/><path fill="#fff" d="M231.6 231.1a17.1 17.1 0 0 1-1.3 2.3 4.2 4.2 0 0 0 1.5 5.7 4.3 4.3 0 0 0 5.6-1.5l1.3-2.3a4.5 4.5 0 0 0 .4-3.2 4 4 0 0 0-1.9-2.5 4.2 4.2 0 0 0-3.1-.4 4.4 4.4 0 0 0-2.5 1.9z"/><path fill="#62c7c7" d="M227.9 232.4c.1.4.3.8.4 1.1a1 1 0 0 0 1.8.3 4.1 4.1 0 0 0 .5-.9 1 1 0 1 0-1.7-1 5.6 5.6 0 0 1-.5.8l1.8.3-.3-1.1a1.1 1.1 0 0 0-1.3-.7.9.9 0 0 0-.7 1.2z"/><path fill="#fff" d="M56.2 241.3l-.8-.2h-.2l-.2-.2-1.3-1-2.9-1.9a4.1 4.1 0 0 0-5.6 1.5 4.2 4.2 0 0 0 1.4 5.6l1.7 1 .9.5c.6.4-.2-.2.2.2a8.9 8.9 0 0 0 4.6 2.4c2.1.4 4.6-.6 5.1-2.8s-.6-4.7-2.9-5.1zm-23.5-14.2c.1.1.1.3.2.4s.2.3-.1-.3.2.5.3.8a8.5 8.5 0 0 1 .4 1.7 4.1 4.1 0 0 0 5.1 2.8 4.3 4.3 0 0 0 2.9-5 25.4 25.4 0 0 0-1.7-4.6 4.1 4.1 0 0 0-7.1 4.2z"/></g></svg>